<?xml version="1.0" encoding="UTF-8" standalone="no"?>
<!-- Created with Inkscape (http://www.inkscape.org/) -->

<svg
   xmlns:dc="http://purl.org/dc/elements/1.1/"
   xmlns:cc="http://creativecommons.org/ns#"
   xmlns:rdf="http://www.w3.org/1999/02/22-rdf-syntax-ns#"
   xmlns:svg="http://www.w3.org/2000/svg"
   xmlns="http://www.w3.org/2000/svg"
   xmlns:sodipodi="http://sodipodi.sourceforge.net/DTD/sodipodi-0.dtd"
   xmlns:inkscape="http://www.inkscape.org/namespaces/inkscape"
   version="1.1"
   id="svg3915"
   xml:space="preserve"
   width="604.30249"
   height="162.75629"
   viewBox="0 0 604.30249 162.75629"
   sodipodi:docname="justwatch.svg"
   inkscape:version="0.92.4 (5da689c313, 2019-01-14)"><metadata
     id="metadata3921"><rdf:RDF><cc:Work
         rdf:about=""><dc:format>image/svg+xml</dc:format><dc:type
           rdf:resource="http://purl.org/dc/dcmitype/StillImage" /><dc:title></dc:title></cc:Work></rdf:RDF></metadata><defs
     id="defs3919"><radialGradient
       fx="0"
       fy="0"
       cx="0"
       cy="0"
       r="1"
       gradientUnits="userSpaceOnUse"
       gradientTransform="matrix(1790.3584,0,0,-967.58483,3034.2437,1654.2857)"
       spreadMethod="pad"
       id="radialGradient3933"><stop
         style="stop-opacity:1;stop-color:#101920"
         offset="0"
         id="stop3927" /><stop
         style="stop-opacity:1;stop-color:#101920"
         offset="0.195266"
         id="stop3929" /><stop
         style="stop-opacity:1;stop-color:#08090a"
         offset="1"
         id="stop3931" /></radialGradient><clipPath
       clipPathUnits="userSpaceOnUse"
       id="clipPath3943"><path
         d="m 1394.5,1705.56 -0.12,-116.26 c 0,0 -1.62,-17.14 13.9,-9.19 15.48,7.97 60.45,31.2 89.92,46.41 41.66,21.51 0.1,42.41 0.1,42.41 0,0 -75.14,38.96 -90.21,46.78 -15.06,7.82 -13.59,-10.15 -13.59,-10.15 z m -129.34,-202.71 c 21.26,10.35 91.96,47.76 107.78,55.98 21.47,11.15 0.36,21.37 0.36,21.37 l -107.84,56.38 c 0,0 -19.22,10.47 -18.36,-11.55 0.88,-22.01 -0.14,-109.2 -0.14,-109.2 0,0 -3.04,-23.33 18.2,-12.98 z m -147.22,-74.89 c 21.25,10.33 91.95,47.74 107.78,55.99 21.46,11.13 0.36,21.33 0.36,21.33 l -107.85,56.39 c 0,0 -19.22,10.47 -18.34,-11.54 0.85,-22.02 -0.16,-109.2 -0.16,-109.2 0,0 -3.06,-23.34 18.21,-12.97 z m -147.573,77.77 c 21.258,10.36 91.943,47.75 107.773,55.98 21.46,11.15 0.38,21.38 0.38,21.38 l -107.852,56.38 c 0,0 -19.238,10.45 -18.359,-11.56 0.851,-22.01 -0.157,-109.21 -0.157,-109.21 0,0 -3.054,-23.33 18.215,-12.97 z m 147.733,74.81 c 21.26,10.35 91.96,47.76 107.78,55.98 21.47,11.15 0.37,21.38 0.37,21.38 l -107.85,56.38 c 0,0 -19.22,10.45 -18.36,-11.57 0.87,-22.01 -0.14,-109.18 -0.14,-109.18 0,0 -3.06,-23.34 18.2,-12.99 z m 147.1,78.83 c 21.24,10.35 91.95,47.75 107.78,55.97 21.46,11.15 0.36,21.37 0.36,21.37 l -107.84,56.39 c 0,0 -19.23,10.44 -18.36,-11.56 0.87,-22.01 -0.14,-109.2 -0.14,-109.2 0,0 -3.06,-23.33 18.2,-12.97 z m -294.696,-2.99 c 21.258,10.35 91.956,47.75 107.786,55.98 21.45,11.15 0.37,21.37 0.37,21.37 l -107.855,56.38 c 0,0 -19.227,10.46 -18.36,-11.56 0.879,-22.01 -0.136,-109.18 -0.136,-109.18 0,0 -3.047,-23.34 18.195,-12.99 z m 147.436,78.22 c 21.27,10.36 91.97,47.75 107.79,55.98 21.46,11.14 0.38,21.37 0.38,21.37 l -107.85,56.38 c 0,0 -19.23,10.45 -18.37,-11.55 0.88,-22.02 -0.15,-109.2 -0.15,-109.2 0,0 -3.05,-23.34 18.2,-12.98 z m -165.67,-251.51 0.156,-95.11 c 0,0 2.715,-43.58 45.781,-21.06 43.093,22.54 87.483,45.08 87.483,45.08 0,0 12.39,7.31 -0.02,13.87 -12.43,6.58 -122.307,63.84 -122.307,63.84 0,0 -11.133,4.61 -11.093,-6.62 z m 0.46,330.03 0.098,95.1 c 0,0 2.664,43.59 45.762,21.09 43.1,-22.51 87.51,-44.99 87.51,-44.99 0,0 12.41,-7.28 -0.01,-13.89 -12.41,-6.58 -122.258,-63.93 -122.258,-63.93 0,0 -11.102,-4.61 -11.102,6.62 z"
         id="path3941"
         inkscape:connector-curvature="0" /></clipPath><linearGradient
       x1="0"
       y1="0"
       x2="1"
       y2="0"
       gradientUnits="userSpaceOnUse"
       gradientTransform="matrix(564.736,0,0,-564.736,952.002,1648.11)"
       spreadMethod="pad"
       id="linearGradient3951"><stop
         style="stop-opacity:1;stop-color:#f5d036"
         offset="0"
         id="stop3945" /><stop
         style="stop-opacity:1;stop-color:#f5d036"
         offset="0.058561"
         id="stop3947" /><stop
         style="stop-opacity:1;stop-color:#d9ae1c"
         offset="1"
         id="stop3949" /></linearGradient><clipPath
       clipPathUnits="userSpaceOnUse"
       id="clipPath3961"><path
         d="m 1649.52,1489 c 4.26,-20.48 13.59,-37.49 28.01,-50.96 14.4,-13.46 32.25,-20.22 53.61,-20.22 17.06,0 31.05,3.24 42,9.71 10.92,6.46 19.61,15.23 26,26.28 6.39,11.05 10.92,24 13.58,38.83 2.68,14.84 4.01,30.59 4.01,47.3 v 393.82 h 79.23 v -397.05 c 0,-19.95 -2.15,-40.97 -6.43,-63.08 -4.26,-22.12 -12.26,-42.6 -23.99,-61.47 -11.74,-18.87 -28.13,-34.51 -49.2,-46.92 -21.08,-12.36 -48.15,-18.59 -81.22,-18.59 -43.19,0 -78.4,11.33 -105.6,33.98 -27.2,22.64 -45.09,51.74 -53.61,87.34 z"
         id="path3959"
         inkscape:connector-curvature="0" /></clipPath><linearGradient
       x1="0"
       y1="0"
       x2="1"
       y2="0"
       gradientUnits="userSpaceOnUse"
       gradientTransform="matrix(4241.71,-238.49,-238.49,-4241.71,1688.68,1647.15)"
       spreadMethod="pad"
       id="linearGradient3969"><stop
         style="stop-opacity:1;stop-color:#d9ae1c"
         offset="0"
         id="stop3963" /><stop
         style="stop-opacity:1;stop-color:#f5d036"
         offset="0.5"
         id="stop3965" /><stop
         style="stop-opacity:1;stop-color:#d9ae1c"
         offset="1"
         id="stop3967" /></linearGradient><clipPath
       clipPathUnits="userSpaceOnUse"
       id="clipPath3979"><path
         d="m 2242.58,1361.2 c -1.08,9.71 -1.88,20.65 -2.4,32.77 -0.53,12.13 -0.8,22.21 -0.8,30.34 h -1.61 c -9.59,-20.53 -25.72,-37.89 -48.39,-52.17 -22.68,-14.3 -47.88,-21.45 -75.61,-21.45 -24.55,0 -45.74,4.07 -63.61,12.15 -17.89,8.07 -32.54,19.28 -44.01,33.56 -11.48,14.27 -20,30.86 -25.6,49.72 -5.59,18.9 -8.4,39.11 -8.4,60.68 v 237.74 h 75.21 v -211.87 c 0,-15.64 1.21,-30.62 3.6,-44.9 2.4,-14.27 6.79,-26.79 13.2,-37.58 6.41,-10.81 15.22,-19.44 26.41,-25.88 11.19,-6.49 25.58,-9.73 43.2,-9.73 30.39,0 54.94,11.46 73.59,34.38 18.68,22.93 28.01,53.51 28.01,91.8 v 203.78 h 75.22 V 1443.7 c 0,-10.23 0.25,-23.46 0.8,-39.63 0.52,-16.15 1.32,-30.47 2.4,-42.87 z"
         id="path3977"
         inkscape:connector-curvature="0" /></clipPath><linearGradient
       x1="0"
       y1="0"
       x2="1"
       y2="0"
       gradientUnits="userSpaceOnUse"
       gradientTransform="matrix(4244.67,-238.657,-238.657,-4244.67,1684.41,1577.12)"
       spreadMethod="pad"
       id="linearGradient3987"><stop
         style="stop-opacity:1;stop-color:#d9ae1c"
         offset="0"
         id="stop3981" /><stop
         style="stop-opacity:1;stop-color:#f5d036"
         offset="0.5"
         id="stop3983" /><stop
         style="stop-opacity:1;stop-color:#d9ae1c"
         offset="1"
         id="stop3985" /></linearGradient><clipPath
       clipPathUnits="userSpaceOnUse"
       id="clipPath3997"><path
         d="m 2606.21,1647.5 c -8.53,14.01 -20.55,25.47 -36.01,34.37 -15.47,8.89 -32.82,13.34 -52,13.34 -8.53,0 -17.07,-0.95 -25.6,-2.82 -8.54,-1.91 -16.14,-4.87 -22.81,-8.9 -6.66,-4.05 -12,-9.18 -16,-15.37 -4,-6.22 -6,-13.9 -6,-23.06 0,-16.16 7.19,-28.16 21.59,-35.97 14.41,-7.83 36.01,-14.97 64.82,-21.43 18.12,-4.33 34.92,-9.44 50.41,-15.37 15.45,-5.93 28.91,-13.34 40.41,-22.24 11.44,-8.9 20.39,-19.54 26.8,-31.93 6.38,-12.43 9.59,-26.97 9.59,-43.69 0,-22.62 -4.28,-41.78 -12.8,-57.39 -8.53,-15.66 -19.88,-28.48 -34,-38.44 -14.14,-10 -30.27,-17.13 -48.42,-21.42 -18.12,-4.3 -36.8,-6.49 -55.99,-6.49 -28.81,0 -56.96,5.69 -84.42,17 -27.48,11.32 -50.27,28.57 -68.4,51.77 l 53.62,46.09 c 10.11,-15.11 24.12,-27.79 41.99,-38.02 17.87,-10.24 37.48,-15.37 58.81,-15.37 9.59,0 18.81,0.94 27.59,2.85 8.81,1.89 16.8,4.96 24.01,9.3 7.21,4.29 12.91,9.96 17.21,16.99 4.25,6.99 6.38,15.87 6.38,26.67 0,17.79 -8.4,30.99 -25.19,39.62 -16.82,8.63 -41.47,16.69 -74.01,24.27 -12.79,3.23 -25.74,7.13 -38.79,11.71 -13.08,4.57 -24.96,10.94 -35.62,19.01 -10.67,8.08 -19.32,18.2 -26,30.33 -6.68,12.13 -9.98,27.1 -9.98,44.88 0,20.49 4.1,38.14 12.39,52.97 8.26,14.83 19.08,26.96 32.4,36.39 13.32,9.42 28.53,16.45 45.6,21.03 17.07,4.57 34.65,6.87 52.8,6.87 27.2,0 53.47,-5.4 78.82,-16.18 25.32,-10.79 44.93,-26.41 58.79,-46.89 z"
         id="path3995"
         inkscape:connector-curvature="0" /></clipPath><linearGradient
       x1="0"
       y1="0"
       x2="1"
       y2="0"
       gradientUnits="userSpaceOnUse"
       gradientTransform="matrix(4241.57,-238.482,-238.482,-4241.57,1686.09,1599.49)"
       spreadMethod="pad"
       id="linearGradient4005"><stop
         style="stop-opacity:1;stop-color:#d9ae1c"
         offset="0"
         id="stop3999" /><stop
         style="stop-opacity:1;stop-color:#f5d036"
         offset="0.5"
         id="stop4001" /><stop
         style="stop-opacity:1;stop-color:#d9ae1c"
         offset="1"
         id="stop4003" /></linearGradient><clipPath
       clipPathUnits="userSpaceOnUse"
       id="clipPath4015"><path
         d="m 2932.01,1682.27 h -100.8 v -199.13 c 0,-23.12 4.26,-39.65 12.79,-49.58 8.54,-9.98 22.15,-14.94 40.8,-14.94 6.94,0 14.42,0.75 22.43,2.25 7.98,1.48 15.17,3.71 21.6,6.66 l 2.38,-62.29 c -9.06,-3.2 -19.08,-5.76 -30,-7.67 -10.94,-1.88 -22.26,-2.81 -34,-2.81 -35.75,0 -63.07,9.96 -82.01,29.92 -18.93,19.94 -28.4,49.84 -28.4,89.75 v 207.84 h -72.82 v 62.27 h 72.82 v 109.98 h 74.41 v -109.98 h 100.8 z"
         id="path4013"
         inkscape:connector-curvature="0" /></clipPath><linearGradient
       x1="0"
       y1="0"
       x2="1"
       y2="0"
       gradientUnits="userSpaceOnUse"
       gradientTransform="matrix(4245.5,-238.703,-238.703,-4245.5,1688.95,1669.74)"
       spreadMethod="pad"
       id="linearGradient4023"><stop
         style="stop-opacity:1;stop-color:#d9ae1c"
         offset="0"
         id="stop4017" /><stop
         style="stop-opacity:1;stop-color:#f5d036"
         offset="0.5"
         id="stop4019" /><stop
         style="stop-opacity:1;stop-color:#d9ae1c"
         offset="1"
         id="stop4021" /></linearGradient><clipPath
       clipPathUnits="userSpaceOnUse"
       id="clipPath4033"><path
         d="m 3143.24,1477.7 h 1.6 l 132.8,456.06 h 87.2 l 132.02,-456.06 h 1.6 l 124.82,456.06 h 84.01 L 3540.86,1361.2 h -82.38 l -137.64,460.16 h -1.6 l -137.6,-460.16 h -82.4 l -166.43,572.56 h 85.61 z"
         id="path4031"
         inkscape:connector-curvature="0" /></clipPath><linearGradient
       x1="0"
       y1="0"
       x2="1"
       y2="0"
       gradientUnits="userSpaceOnUse"
       gradientTransform="matrix(4241.91,-238.502,-238.502,-4241.91,1693.84,1743.59)"
       spreadMethod="pad"
       id="linearGradient4041"><stop
         style="stop-opacity:1;stop-color:#d9ae1c"
         offset="0"
         id="stop4035" /><stop
         style="stop-opacity:1;stop-color:#f5d036"
         offset="0.5"
         id="stop4037" /><stop
         style="stop-opacity:1;stop-color:#d9ae1c"
         offset="1"
         id="stop4039" /></linearGradient><clipPath
       clipPathUnits="userSpaceOnUse"
       id="clipPath4051"><path
         d="m 3926.04,1543.97 c -18.68,0 -38.01,-0.79 -58.01,-2.42 -20,-1.61 -38.15,-4.84 -54.4,-9.69 -16.27,-4.85 -29.74,-12.14 -40.41,-21.85 -10.66,-9.68 -15.99,-22.61 -15.99,-38.8 0,-11.33 2.26,-20.77 6.79,-28.31 4.53,-7.56 10.53,-13.75 18.01,-18.59 7.46,-4.85 15.72,-8.25 24.81,-10.14 9.04,-1.89 18.39,-2.81 27.98,-2.81 35.22,0 62.29,10.62 81.22,31.95 18.92,21.3 28.39,48.12 28.39,80.46 v 20.2 z m 18.39,65.52 c 0,28.56 -8.53,49.73 -25.6,63.48 -17.07,13.74 -39.75,20.62 -67.99,20.62 -21.37,0 -41.48,-4.19 -60.41,-12.53 -18.95,-8.36 -34.8,-19 -47.6,-31.94 l -40,48.52 c 18.65,17.79 41.45,31.8 68.4,42.05 26.91,10.23 55.86,15.36 86.8,15.36 27.2,0 50.8,-3.91 70.82,-11.72 19.98,-7.83 36.4,-18.48 49.2,-31.95 12.81,-13.47 22.4,-29.4 28.79,-47.71 6.4,-18.34 9.61,-38.02 9.61,-59.04 v -167.39 c 0,-12.93 0.41,-26.57 1.21,-40.84 0.78,-14.28 2.24,-26.02 4.39,-35.2 h -68.01 c -4.29,18.34 -6.38,36.68 -6.38,54.98 h -2.43 c -13.86,-20.47 -31.32,-36.37 -52.4,-47.69 -21.07,-11.31 -45.99,-16.98 -74.8,-16.98 -14.94,0 -30.55,2.03 -46.8,6.06 -16.29,4.06 -31.07,10.64 -44.41,19.82 -13.34,9.16 -24.4,21.29 -33.23,36.39 -8.79,15.1 -13.18,33.67 -13.18,55.81 0,29.12 7.72,52.16 23.2,69.14 15.47,16.99 35.73,29.92 60.82,38.82 25.06,8.91 53.32,14.68 84.79,17.38 31.46,2.69 63.2,4.04 95.21,4.04 z"
         id="path4049"
         inkscape:connector-curvature="0" /></clipPath><linearGradient
       x1="0"
       y1="0"
       x2="1"
       y2="0"
       gradientUnits="userSpaceOnUse"
       gradientTransform="matrix(4242.81,-238.552,-238.552,-4242.81,1689.78,1674.15)"
       spreadMethod="pad"
       id="linearGradient4059"><stop
         style="stop-opacity:1;stop-color:#d9ae1c"
         offset="0"
         id="stop4053" /><stop
         style="stop-opacity:1;stop-color:#f5d036"
         offset="0.5"
         id="stop4055" /><stop
         style="stop-opacity:1;stop-color:#d9ae1c"
         offset="1"
         id="stop4057" /></linearGradient><clipPath
       clipPathUnits="userSpaceOnUse"
       id="clipPath4069"><path
         d="m 4299.67,1682.27 h -100.8 v -199.13 c 0,-23.12 4.26,-39.65 12.79,-49.58 8.54,-9.98 22.13,-14.94 40.8,-14.94 6.92,0 14.42,0.75 22.4,2.25 8.01,1.48 15.2,3.71 21.6,6.66 l 2.41,-62.29 c -9.08,-3.2 -19.07,-5.76 -30,-7.67 -10.94,-1.88 -22.27,-2.81 -34.01,-2.81 -35.74,0 -63.06,9.96 -82.01,29.92 -18.94,19.94 -28.4,49.84 -28.4,89.75 v 207.84 h -72.81 v 62.27 h 72.81 v 109.98 h 74.42 v -109.98 h 100.8 z"
         id="path4067"
         inkscape:connector-curvature="0" /></clipPath><linearGradient
       x1="0"
       y1="0"
       x2="1"
       y2="0"
       gradientUnits="userSpaceOnUse"
       gradientTransform="matrix(4245.56,-238.707,-238.707,-4245.56,1692.07,1746.45)"
       spreadMethod="pad"
       id="linearGradient4077"><stop
         style="stop-opacity:1;stop-color:#d9ae1c"
         offset="0"
         id="stop4071" /><stop
         style="stop-opacity:1;stop-color:#f5d036"
         offset="0.5"
         id="stop4073" /><stop
         style="stop-opacity:1;stop-color:#d9ae1c"
         offset="1"
         id="stop4075" /></linearGradient><clipPath
       clipPathUnits="userSpaceOnUse"
       id="clipPath4087"><path
         d="m 4622.87,1647.5 c -7.99,12.4 -19.98,22.77 -35.98,31.13 -15.99,8.34 -33.08,12.53 -51.21,12.53 -19.74,0 -37.2,-3.77 -52.4,-11.32 -15.19,-7.56 -28.14,-17.67 -38.81,-30.33 -10.66,-12.67 -18.79,-27.36 -24.41,-44.06 -5.59,-16.72 -8.38,-34.24 -8.38,-52.56 0,-18.34 2.79,-35.86 8.38,-52.56 5.62,-16.74 13.75,-31.42 24.41,-44.1 10.67,-12.67 23.73,-22.76 39.2,-30.32 15.47,-7.56 33.07,-11.33 52.81,-11.33 19.2,0 36.66,3.77 52.41,11.33 15.72,7.56 28.67,17.79 38.81,30.73 l 50.39,-46.08 c -16,-18.87 -36,-33.56 -60,-44.09 -24.01,-10.5 -51.2,-15.78 -81.61,-15.78 -29.33,0 -56.4,4.87 -81.21,14.55 -24.78,9.73 -46.27,23.32 -64.41,40.86 -18.15,17.5 -32.38,38.68 -42.81,63.49 -10.39,24.8 -15.59,52.56 -15.59,83.3 0,30.18 5.08,57.68 15.2,82.48 10.13,24.79 24.27,46.09 42.42,63.88 18.12,17.79 39.59,31.54 64.39,41.25 24.81,9.7 51.62,14.55 80.41,14.55 26.66,0 53.21,-5.4 79.61,-16.18 26.39,-10.79 47.35,-26.41 62.8,-46.89 z"
         id="path4085"
         inkscape:connector-curvature="0" /></clipPath><linearGradient
       x1="0"
       y1="0"
       x2="1"
       y2="0"
       gradientUnits="userSpaceOnUse"
       gradientTransform="matrix(4242.84,-238.554,-238.554,-4242.84,1691.73,1712.73)"
       spreadMethod="pad"
       id="linearGradient4095"><stop
         style="stop-opacity:1;stop-color:#d9ae1c"
         offset="0"
         id="stop4089" /><stop
         style="stop-opacity:1;stop-color:#f5d036"
         offset="0.5"
         id="stop4091" /><stop
         style="stop-opacity:1;stop-color:#d9ae1c"
         offset="1"
         id="stop4093" /></linearGradient><clipPath
       clipPathUnits="userSpaceOnUse"
       id="clipPath4105"><path
         d="m 4810.9,1686.31 c 9.06,18.87 24.51,35.04 46.4,48.53 21.86,13.47 46.41,20.21 73.6,20.21 24.53,0 45.62,-4.18 63.22,-12.53 17.6,-8.37 32.25,-19.55 44.01,-33.56 11.71,-14.02 20.39,-30.47 25.99,-49.32 5.59,-18.9 8.4,-39.11 8.4,-60.67 V 1361.2 h -75.22 v 212.42 c 0,15.66 -1.19,30.54 -3.59,44.58 -2.4,14.06 -6.82,26.47 -13.2,37.3 -6.39,10.8 -15.08,19.43 -26,25.95 -10.94,6.47 -25.19,9.71 -42.79,9.71 -29.9,0 -54.42,-11.48 -73.61,-34.46 -19.22,-22.96 -28.79,-53.63 -28.79,-92.01 V 1361.2 h -75.22 v 611.38 h 75.22 v -286.27 z"
         id="path4103"
         inkscape:connector-curvature="0" /></clipPath><linearGradient
       x1="0"
       y1="0"
       x2="1"
       y2="0"
       gradientUnits="userSpaceOnUse"
       gradientTransform="matrix(4245.92,-238.727,-238.727,-4245.92,1696.36,1839.8)"
       spreadMethod="pad"
       id="linearGradient4113"><stop
         style="stop-opacity:1;stop-color:#d9ae1c"
         offset="0"
         id="stop4107" /><stop
         style="stop-opacity:1;stop-color:#f5d036"
         offset="0.5"
         id="stop4109" /><stop
         style="stop-opacity:1;stop-color:#d9ae1c"
         offset="1"
         id="stop4111" /></linearGradient></defs><sodipodi:namedview
     pagecolor="#ffffff"
     bordercolor="#666666"
     borderopacity="1"
     objecttolerance="10"
     gridtolerance="10"
     guidetolerance="10"
     inkscape:pageopacity="0"
     inkscape:pageshadow="2"
     inkscape:window-width="1920"
     inkscape:window-height="1017"
     id="namedview3917"
     showgrid="false"
     inkscape:zoom="0.62484436"
     inkscape:cx="570.30473"
     inkscape:cy="-44.749988"
     inkscape:window-x="-8"
     inkscape:window-y="-8"
     inkscape:window-maximized="1"
     inkscape:current-layer="g3925" /><g
     id="g3923"
     inkscape:groupmode="layer"
     inkscape:label="ink_ext_XXXXXX"
     transform="matrix(1.3333333,0,0,-1.3333333,-102.41457,301.94957)"><g
       id="g3925"
       transform="scale(0.1)"><rect
         style="fill:#0a0c0f;fill-opacity:1;stroke:#000000;stroke-width:4.68000031;stroke-linejoin:round;stroke-miterlimit:4;stroke-dasharray:none;stroke-opacity:1"
         id="rect4127"
         width="4532.269"
         height="1217.9412"
         x="768.10931"
         y="-2261.8909"
         transform="scale(1,-1)"
         ry="226.5"
         rx="225" /><g
         id="g3937"><g
           id="g3939"
           clip-path="url(#clipPath3943)"><path
             d="m 1394.5,1705.56 -0.12,-116.26 c 0,0 -1.62,-17.14 13.9,-9.19 15.48,7.97 60.45,31.2 89.92,46.41 41.66,21.51 0.1,42.41 0.1,42.41 0,0 -75.14,38.96 -90.21,46.78 -15.06,7.82 -13.59,-10.15 -13.59,-10.15 z m -129.34,-202.71 c 21.26,10.35 91.96,47.76 107.78,55.98 21.47,11.15 0.36,21.37 0.36,21.37 l -107.84,56.38 c 0,0 -19.22,10.47 -18.36,-11.55 0.88,-22.01 -0.14,-109.2 -0.14,-109.2 0,0 -3.04,-23.33 18.2,-12.98 z m -147.22,-74.89 c 21.25,10.33 91.95,47.74 107.78,55.99 21.46,11.13 0.36,21.33 0.36,21.33 l -107.85,56.39 c 0,0 -19.22,10.47 -18.34,-11.54 0.85,-22.02 -0.16,-109.2 -0.16,-109.2 0,0 -3.06,-23.34 18.21,-12.97 z m -147.573,77.77 c 21.258,10.36 91.943,47.75 107.773,55.98 21.46,11.15 0.38,21.38 0.38,21.38 l -107.852,56.38 c 0,0 -19.238,10.45 -18.359,-11.56 0.851,-22.01 -0.157,-109.21 -0.157,-109.21 0,0 -3.054,-23.33 18.215,-12.97 z m 147.733,74.81 c 21.26,10.35 91.96,47.76 107.78,55.98 21.47,11.15 0.37,21.38 0.37,21.38 l -107.85,56.38 c 0,0 -19.22,10.45 -18.36,-11.57 0.87,-22.01 -0.14,-109.18 -0.14,-109.18 0,0 -3.06,-23.34 18.2,-12.99 z m 147.1,78.83 c 21.24,10.35 91.95,47.75 107.78,55.97 21.46,11.15 0.36,21.37 0.36,21.37 l -107.84,56.39 c 0,0 -19.23,10.44 -18.36,-11.56 0.87,-22.01 -0.14,-109.2 -0.14,-109.2 0,0 -3.06,-23.33 18.2,-12.97 z m -294.696,-2.99 c 21.258,10.35 91.956,47.75 107.786,55.98 21.45,11.15 0.37,21.37 0.37,21.37 l -107.855,56.38 c 0,0 -19.227,10.46 -18.36,-11.56 0.879,-22.01 -0.136,-109.18 -0.136,-109.18 0,0 -3.047,-23.34 18.195,-12.99 z m 147.436,78.22 c 21.27,10.36 91.97,47.75 107.79,55.98 21.46,11.14 0.38,21.37 0.38,21.37 l -107.85,56.38 c 0,0 -19.23,10.45 -18.37,-11.55 0.88,-22.02 -0.15,-109.2 -0.15,-109.2 0,0 -3.05,-23.34 18.2,-12.98 z m -165.67,-251.51 0.156,-95.11 c 0,0 2.715,-43.58 45.781,-21.06 43.093,22.54 87.483,45.08 87.483,45.08 0,0 12.39,7.31 -0.02,13.87 -12.43,6.58 -122.307,63.84 -122.307,63.84 0,0 -11.133,4.61 -11.093,-6.62 z m 0.46,330.03 0.098,95.1 c 0,0 2.664,43.59 45.762,21.09 43.1,-22.51 87.51,-44.99 87.51,-44.99 0,0 12.41,-7.28 -0.01,-13.89 -12.41,-6.58 -122.258,-63.93 -122.258,-63.93 0,0 -11.102,-4.61 -11.102,6.62"
             style="fill:url(#linearGradient3951);fill-opacity:1;fill-rule:nonzero;stroke:none"
             id="path3953"
             inkscape:connector-curvature="0" /></g></g><g
         id="g3955"><g
           id="g3957"
           clip-path="url(#clipPath3961)"><path
             d="m 1649.52,1489 c 4.26,-20.48 13.59,-37.49 28.01,-50.96 14.4,-13.46 32.25,-20.22 53.61,-20.22 17.06,0 31.05,3.24 42,9.71 10.92,6.46 19.61,15.23 26,26.28 6.39,11.05 10.92,24 13.58,38.83 2.68,14.84 4.01,30.59 4.01,47.3 v 393.82 h 79.23 v -397.05 c 0,-19.95 -2.15,-40.97 -6.43,-63.08 -4.26,-22.12 -12.26,-42.6 -23.99,-61.47 -11.74,-18.87 -28.13,-34.51 -49.2,-46.92 -21.08,-12.36 -48.15,-18.59 -81.22,-18.59 -43.19,0 -78.4,11.33 -105.6,33.98 -27.2,22.64 -45.09,51.74 -53.61,87.34 l 73.61,21.03"
             style="fill:url(#linearGradient3969);fill-opacity:1;fill-rule:nonzero;stroke:none"
             id="path3971"
             inkscape:connector-curvature="0" /></g></g><g
         id="g3973"><g
           id="g3975"
           clip-path="url(#clipPath3979)"><path
             d="m 2242.58,1361.2 c -1.08,9.71 -1.88,20.65 -2.4,32.77 -0.53,12.13 -0.8,22.21 -0.8,30.34 h -1.61 c -9.59,-20.53 -25.72,-37.89 -48.39,-52.17 -22.68,-14.3 -47.88,-21.45 -75.61,-21.45 -24.55,0 -45.74,4.07 -63.61,12.15 -17.89,8.07 -32.54,19.28 -44.01,33.56 -11.48,14.27 -20,30.86 -25.6,49.72 -5.59,18.9 -8.4,39.11 -8.4,60.68 v 237.74 h 75.21 v -211.87 c 0,-15.64 1.21,-30.62 3.6,-44.9 2.4,-14.27 6.79,-26.79 13.2,-37.58 6.41,-10.81 15.22,-19.44 26.41,-25.88 11.19,-6.49 25.58,-9.73 43.2,-9.73 30.39,0 54.94,11.46 73.59,34.38 18.68,22.93 28.01,53.51 28.01,91.8 v 203.78 h 75.22 V 1443.7 c 0,-10.23 0.25,-23.46 0.8,-39.63 0.52,-16.15 1.32,-30.47 2.4,-42.87 h -71.21"
             style="fill:url(#linearGradient3987);fill-opacity:1;fill-rule:nonzero;stroke:none"
             id="path3989"
             inkscape:connector-curvature="0" /></g></g><g
         id="g3991"><g
           id="g3993"
           clip-path="url(#clipPath3997)"><path
             d="m 2606.21,1647.5 c -8.53,14.01 -20.55,25.47 -36.01,34.37 -15.47,8.89 -32.82,13.34 -52,13.34 -8.53,0 -17.07,-0.95 -25.6,-2.82 -8.54,-1.91 -16.14,-4.87 -22.81,-8.9 -6.66,-4.05 -12,-9.18 -16,-15.37 -4,-6.22 -6,-13.9 -6,-23.06 0,-16.16 7.19,-28.16 21.59,-35.97 14.41,-7.83 36.01,-14.97 64.82,-21.43 18.12,-4.33 34.92,-9.44 50.41,-15.37 15.45,-5.93 28.91,-13.34 40.41,-22.24 11.44,-8.9 20.39,-19.54 26.8,-31.93 6.38,-12.43 9.59,-26.97 9.59,-43.69 0,-22.62 -4.28,-41.78 -12.8,-57.39 -8.53,-15.66 -19.88,-28.48 -34,-38.44 -14.14,-10 -30.27,-17.13 -48.42,-21.42 -18.12,-4.3 -36.8,-6.49 -55.99,-6.49 -28.81,0 -56.96,5.69 -84.42,17 -27.48,11.32 -50.27,28.57 -68.4,51.77 l 53.62,46.09 c 10.11,-15.11 24.12,-27.79 41.99,-38.02 17.87,-10.24 37.48,-15.37 58.81,-15.37 9.59,0 18.81,0.94 27.59,2.85 8.81,1.89 16.8,4.96 24.01,9.3 7.21,4.29 12.91,9.96 17.21,16.99 4.25,6.99 6.38,15.87 6.38,26.67 0,17.79 -8.4,30.99 -25.19,39.62 -16.82,8.63 -41.47,16.69 -74.01,24.27 -12.79,3.23 -25.74,7.13 -38.79,11.71 -13.08,4.57 -24.96,10.94 -35.62,19.01 -10.67,8.08 -19.32,18.2 -26,30.33 -6.68,12.13 -9.98,27.1 -9.98,44.88 0,20.49 4.1,38.14 12.39,52.97 8.26,14.83 19.08,26.96 32.4,36.39 13.32,9.42 28.53,16.45 45.6,21.03 17.07,4.57 34.65,6.87 52.8,6.87 27.2,0 53.47,-5.4 78.82,-16.18 25.32,-10.79 44.93,-26.41 58.79,-46.89 l -51.99,-44.48"
             style="fill:url(#linearGradient4005);fill-opacity:1;fill-rule:nonzero;stroke:none"
             id="path4007"
             inkscape:connector-curvature="0" /></g></g><g
         id="g4009"><g
           id="g4011"
           clip-path="url(#clipPath4015)"><path
             d="m 2932.01,1682.27 h -100.8 v -199.13 c 0,-23.12 4.26,-39.65 12.79,-49.58 8.54,-9.98 22.15,-14.94 40.8,-14.94 6.94,0 14.42,0.75 22.43,2.25 7.98,1.48 15.17,3.71 21.6,6.66 l 2.38,-62.29 c -9.06,-3.2 -19.08,-5.76 -30,-7.67 -10.94,-1.88 -22.26,-2.81 -34,-2.81 -35.75,0 -63.07,9.96 -82.01,29.92 -18.93,19.94 -28.4,49.84 -28.4,89.75 v 207.84 h -72.82 v 62.27 h 72.82 v 109.98 h 74.41 v -109.98 h 100.8 v -62.27"
             style="fill:url(#linearGradient4023);fill-opacity:1;fill-rule:nonzero;stroke:none"
             id="path4025"
             inkscape:connector-curvature="0" /></g></g><g
         id="g4027"><g
           id="g4029"
           clip-path="url(#clipPath4033)"><path
             d="m 3143.24,1477.7 h 1.6 l 132.8,456.06 h 87.2 l 132.02,-456.06 h 1.6 l 124.82,456.06 h 84.01 L 3540.86,1361.2 h -82.38 l -137.64,460.16 h -1.6 l -137.6,-460.16 h -82.4 l -166.43,572.56 h 85.61 l 124.82,-456.06"
             style="fill:url(#linearGradient4041);fill-opacity:1;fill-rule:nonzero;stroke:none"
             id="path4043"
             inkscape:connector-curvature="0" /></g></g><g
         id="g4045"><g
           id="g4047"
           clip-path="url(#clipPath4051)"><path
             d="m 3926.04,1543.97 c -18.68,0 -38.01,-0.79 -58.01,-2.42 -20,-1.61 -38.15,-4.84 -54.4,-9.69 -16.27,-4.85 -29.74,-12.14 -40.41,-21.85 -10.66,-9.68 -15.99,-22.61 -15.99,-38.8 0,-11.33 2.26,-20.77 6.79,-28.31 4.53,-7.56 10.53,-13.75 18.01,-18.59 7.46,-4.85 15.72,-8.25 24.81,-10.14 9.04,-1.89 18.39,-2.81 27.98,-2.81 35.22,0 62.29,10.62 81.22,31.95 18.92,21.3 28.39,48.12 28.39,80.46 v 20.2 z m 18.39,65.52 c 0,28.56 -8.53,49.73 -25.6,63.48 -17.07,13.74 -39.75,20.62 -67.99,20.62 -21.37,0 -41.48,-4.19 -60.41,-12.53 -18.95,-8.36 -34.8,-19 -47.6,-31.94 l -40,48.52 c 18.65,17.79 41.45,31.8 68.4,42.05 26.91,10.23 55.86,15.36 86.8,15.36 27.2,0 50.8,-3.91 70.82,-11.72 19.98,-7.83 36.4,-18.48 49.2,-31.95 12.81,-13.47 22.4,-29.4 28.79,-47.71 6.4,-18.34 9.61,-38.02 9.61,-59.04 v -167.39 c 0,-12.93 0.41,-26.57 1.21,-40.84 0.78,-14.28 2.24,-26.02 4.39,-35.2 h -68.01 c -4.29,18.34 -6.38,36.68 -6.38,54.98 h -2.43 c -13.86,-20.47 -31.32,-36.37 -52.4,-47.69 -21.07,-11.31 -45.99,-16.98 -74.8,-16.98 -14.94,0 -30.55,2.03 -46.8,6.06 -16.29,4.06 -31.07,10.64 -44.41,19.82 -13.34,9.16 -24.4,21.29 -33.23,36.39 -8.79,15.1 -13.18,33.67 -13.18,55.81 0,29.12 7.72,52.16 23.2,69.14 15.47,16.99 35.73,29.92 60.82,38.82 25.06,8.91 53.32,14.68 84.79,17.38 31.46,2.69 63.2,4.04 95.21,4.04 v 10.52"
             style="fill:url(#linearGradient4059);fill-opacity:1;fill-rule:nonzero;stroke:none"
             id="path4061"
             inkscape:connector-curvature="0" /></g></g><g
         id="g4063"><g
           id="g4065"
           clip-path="url(#clipPath4069)"><path
             d="m 4299.67,1682.27 h -100.8 v -199.13 c 0,-23.12 4.26,-39.65 12.79,-49.58 8.54,-9.98 22.13,-14.94 40.8,-14.94 6.92,0 14.42,0.75 22.4,2.25 8.01,1.48 15.2,3.71 21.6,6.66 l 2.41,-62.29 c -9.08,-3.2 -19.07,-5.76 -30,-7.67 -10.94,-1.88 -22.27,-2.81 -34.01,-2.81 -35.74,0 -63.06,9.96 -82.01,29.92 -18.94,19.94 -28.4,49.84 -28.4,89.75 v 207.84 h -72.81 v 62.27 h 72.81 v 109.98 h 74.42 v -109.98 h 100.8 v -62.27"
             style="fill:url(#linearGradient4077);fill-opacity:1;fill-rule:nonzero;stroke:none"
             id="path4079"
             inkscape:connector-curvature="0" /></g></g><g
         id="g4081"><g
           id="g4083"
           clip-path="url(#clipPath4087)"><path
             d="m 4622.87,1647.5 c -7.99,12.4 -19.98,22.77 -35.98,31.13 -15.99,8.34 -33.08,12.53 -51.21,12.53 -19.74,0 -37.2,-3.77 -52.4,-11.32 -15.19,-7.56 -28.14,-17.67 -38.81,-30.33 -10.66,-12.67 -18.79,-27.36 -24.41,-44.06 -5.59,-16.72 -8.38,-34.24 -8.38,-52.56 0,-18.34 2.79,-35.86 8.38,-52.56 5.62,-16.74 13.75,-31.42 24.41,-44.1 10.67,-12.67 23.73,-22.76 39.2,-30.32 15.47,-7.56 33.07,-11.33 52.81,-11.33 19.2,0 36.66,3.77 52.41,11.33 15.72,7.56 28.67,17.79 38.81,30.73 l 50.39,-46.08 c -16,-18.87 -36,-33.56 -60,-44.09 -24.01,-10.5 -51.2,-15.78 -81.61,-15.78 -29.33,0 -56.4,4.87 -81.21,14.55 -24.78,9.73 -46.27,23.32 -64.41,40.86 -18.15,17.5 -32.38,38.68 -42.81,63.49 -10.39,24.8 -15.59,52.56 -15.59,83.3 0,30.18 5.08,57.68 15.2,82.48 10.13,24.79 24.27,46.09 42.42,63.88 18.12,17.79 39.59,31.54 64.39,41.25 24.81,9.7 51.62,14.55 80.41,14.55 26.66,0 53.21,-5.4 79.61,-16.18 26.39,-10.79 47.35,-26.41 62.8,-46.89 l -54.42,-44.48"
             style="fill:url(#linearGradient4095);fill-opacity:1;fill-rule:nonzero;stroke:none"
             id="path4097"
             inkscape:connector-curvature="0" /></g></g><g
         id="g4099"><g
           id="g4101"
           clip-path="url(#clipPath4105)"><path
             d="m 4810.9,1686.31 c 9.06,18.87 24.51,35.04 46.4,48.53 21.86,13.47 46.41,20.21 73.6,20.21 24.53,0 45.62,-4.18 63.22,-12.53 17.6,-8.37 32.25,-19.55 44.01,-33.56 11.71,-14.02 20.39,-30.47 25.99,-49.32 5.59,-18.9 8.4,-39.11 8.4,-60.67 V 1361.2 h -75.22 v 212.42 c 0,15.66 -1.19,30.54 -3.59,44.58 -2.4,14.06 -6.82,26.47 -13.2,37.3 -6.39,10.8 -15.08,19.43 -26,25.95 -10.94,6.47 -25.19,9.71 -42.79,9.71 -29.9,0 -54.42,-11.48 -73.61,-34.46 -19.22,-22.96 -28.79,-53.63 -28.79,-92.01 V 1361.2 h -75.22 v 611.38 h 75.22 v -286.27 h 1.58"
             style="fill:url(#linearGradient4113);fill-opacity:1;fill-rule:nonzero;stroke:none"
             id="path4115"
             inkscape:connector-curvature="0" /></g></g></g></g></svg>