<?xml version="1.0" encoding="utf-8"?>
<!-- Generator: Adobe Illustrator 22.1.0, SVG Export Plug-In . SVG Version: 6.00 Build 0)  -->
<svg version="1.1" id="Livello_1" xmlns="http://www.w3.org/2000/svg" xmlns:xlink="http://www.w3.org/1999/xlink" x="0px" y="0px"
	 viewBox="0 0 634.5 288.6" style="enable-background:new 0 0 634.5 288.6;" xml:space="preserve">
<style type="text/css">
	.st0{fill:#40C8F4;}
	.st1{fill:#083F88;}
	.st2{fill:#0066B3;}
	.st3{fill:#FFFFFF;}
</style>
<path d="M0,0c178.7,0,357.3,0,536,0c0,38,0,76,0,114c0,7-0.1,13.9,0,20.9c-25,0.4-50,0.1-75,0.2c-57.6,0.1-115.2-0.1-172.8,0.1
	c-81.2-0.2-162.3-0.1-243.5-0.1c-14.9,0-29.8,0-44.7,0C0,90,0,45,0,0"/>
<g>
	<path class="st0" d="M536,114c29-2.6,57.9-5.1,86.9-7.6c3.9,44.6,8,89.2,11.6,133.8c-10.5,0.9-21,1.9-31.5,2.7
		c0-36,0.2-72.1-0.1-108.1c-11.3-0.4-22.6-0.1-33.9-0.2c-11,0.1-22-0.3-33,0.3C536,127.9,536,120.9,536,114z"/>
	<path class="st0" d="M76.9,268.8c75.4,0,150.8-0.2,226.3,0.1c-10.7,1.4-21.5,1.9-32.2,3c-64.1,5.5-128.2,11.4-192.3,16.7
		C78,282,77.4,275.4,76.9,268.8z"/>
</g>
<g>
	<path class="st1" d="M44.7,135c81.2,0,162.3-0.1,243.5,0.1c-25.7,2.8-51.4,4.7-77.1,7.1c-39.5,3.4-79,6.9-118.5,10.4
		c-8.5,0.8-17.1,1.1-25.5,2.6c0.1,4.3,0.3,8.6,0.8,12.9c3.2,33.6,5.6,67.2,9.1,100.7c-10.8,0.1-21.5,0-32.2,0
		C44.7,224.2,44.6,179.6,44.7,135z"/>
	<path class="st1" d="M458.8,255.7c48.1-4.4,96.2-8.1,144.2-12.8c0,8.7,0,17.3,0,26c-97.8,0-195.6,0.1-293.3,0
		C359.4,264.3,409.1,260,458.8,255.7z"/>
</g>
<path class="st2" d="M288.2,135.1c57.6-0.3,115.2,0,172.8-0.1c25-0.1,50,0.2,75-0.2c11-0.5,22-0.2,33-0.3
	c11.3,0.1,22.6-0.2,33.9,0.2c0.2,36,0,72.1,0.1,108.1c-48,4.7-96.1,8.5-144.2,12.8c-49.7,4.3-99.4,8.6-149.2,13.1
	c-2.2,0.2-4.3,0.2-6.5,0.1c-75.4-0.4-150.8-0.1-226.3-0.1c-3.4-33.5-5.8-67.2-9.1-100.7c-0.4-4.3-0.7-8.6-0.8-12.9
	c8.4-1.5,17-1.7,25.5-2.6c39.5-3.5,79-6.9,118.5-10.4C236.8,139.9,262.6,137.9,288.2,135.1"/>
<g id="_x23_ffffffff">
	<path class="st3" d="M41.7,27.7c10.5-7.3,23.9-9.5,36.3-7.5c7.3,1.1,14.6,3.3,20.7,7.7c-1.3,6.8-2.5,13.7-4,20.4
		c-5.2-3.1-10.6-6.2-16.8-7c-10.2-2.1-22.1,1.7-27.6,11c-4.7,8.7-5,20.8,2.1,28.3C57,85.8,64.2,88,71,87.7c6.2,0.2,12-2.3,17.6-4.4
		c-1,7.2-2.5,14.3-3.7,21.5c-8.5,4.1-18.3,4.6-27.6,3.4c-13-1.9-25.1-10.1-30.6-22.1C18,66.4,23.4,40,41.7,27.7z"/>
	<path class="st3" d="M458.2,21.2c8.2,0,16.3,0,24.5,0c0.1,9.2,0,18.5,0,27.7c10.2,0,20.4,0,30.7,0c0.2,8.2,0.2,16.4,0,24.7
		c-10.2,0.1-20.4-0.1-30.6,0.1c-0.1,10.8,0,21.6-0.1,32.4c-8.2,0.3-16.3,0.1-24.5,0.1c-0.1-10.8,0.1-21.6-0.1-32.5
		c-10.4-0.2-20.8,0-31.1-0.1c0-8.2,0-16.3,0-24.5c10.4-0.1,20.8,0,31.2,0C458.3,39.9,458.2,30.6,458.2,21.2z"/>
	<path class="st3" d="M132.4,22.7c9.3,0,18.6-0.1,27.8,0c6.1,27.7,12,55.5,17.8,83.4c-7.2,0.4-14.5,0.2-21.8,0.2
		c-1.2-4.8-2.4-9.6-3.4-14.5c-9.9,0-19.7-0.1-29.6,0.1c-2.3,4.6-4.5,9.4-6.6,14.1c-8.5,0.1-17,0.1-25.5,0c3.6-8.1,7.8-16,11.7-24
		C112.8,62.2,122.5,42.5,132.4,22.7 M142.9,47.1c-3.8,8.7-7.7,17.4-11.5,26.1c5.8,0,11.5,0.1,17.3,0.3
		C146.8,64.7,144.7,55.9,142.9,47.1z"/>
	<path class="st3" d="M198.7,23.1c7.8-0.1,15.6-0.1,23.4,0c1.5-0.3,1.9,1.5,2.6,2.4c8.5,14.8,16.7,29.8,25.5,44.4
		c2.7-15.5,4.6-31.2,7-46.8c7.7-0.3,15.5,0.2,23.2,0.2c-4.1,27.6-7.8,55.3-11.9,82.9c-7.5,0.2-15.1,0-22.6,0.1
		c-9.8-17-19.1-34.2-29-51.2c-2.6,16.9-4.8,33.9-7.3,50.8c-7.5,0-14.9,0.1-22.4-0.1C190.8,78.3,194.7,50.6,198.7,23.1z"/>
	<path class="st3" d="M320,22.9c8.3-0.5,16.7-0.1,25.1-0.2c1.7-0.4,3,0.7,3,2.4c5.6,27.2,11.3,54.3,16.9,81.5
		c-7.4,0.1-14.9,0-22.3,0.1c-1.2-5-2.1-10.1-3.4-15c-9.6-0.4-19.2-0.2-28.7-0.1c-2.7,4.8-4.2,10.4-7.5,14.8c-8.3,0.1-16.6,0-24.9,0
		C292,78.5,305.8,50.6,320,22.9 M318.6,73.4c5.8,0.1,11.6,0,17.4,0.1c-1.8-8.9-3.7-17.7-5.7-26.6C326.4,55.8,322.4,64.5,318.6,73.4z
		"/>
	<path class="st3" d="M373.9,106.2c3.7-27.9,8-55.7,11.9-83.6c7.9,0,15.8-0.1,23.6,0.1c-2.7,21.5-5.9,43-8.8,64.5
		c8.4,0.1,16.8-0.1,25.2,0.1c-0.6,6.3-1.6,12.6-2.4,18.9C406.9,106.4,390.4,106.4,373.9,106.2z"/>
	<path class="st3" d="M327.7,156.6c0.8-1.2,1.5-2.4,2.3-3.7c10.8,0.1,21.6,0,32.5,0.1c-0.1,0.9-0.3,2.7-0.4,3.6c2.2,0,4.4,0,6.6,0
		c0,6.1,0,12.3,0,18.4c-8.6,0-17.1,0-25.7,0c0,4.6,0,9.2,0,13.8c8.1,0,16.3-0.1,24.4,0c0,6.1,0,12.2,0,18.4c-8.1,0.1-16.3,0-24.4,0
		c0,4.8,0,9.6,0,14.3c8.6,0,17.1-0.1,25.7,0c0,6.1,0,12.3,0,18.4c-15.9,0-31.8,0-47.7,0c0-27.8,0-55.6,0-83.5
		C323.2,156.5,325.5,156.6,327.7,156.6z"/>
	<path class="st3" d="M111.7,161.7c14.9-9.3,35.1-9.3,49.9,0.1c-0.8,6.8-1.5,13.5-2.5,20.2c-7.4-5.9-17.4-8.4-26.7-6.5
		c-6.5,1.2-12.5,5.1-16.2,10.6c-4.9,7.6-5,18.1,0,25.6c4,6.2,11.4,9.7,18.8,9.7c6.9-0.1,13.8-1.6,19.9-5.1
		c-0.6,6.5-0.9,13.1-1.8,19.6c-0.3,2.2-2.8,2.7-4.6,3.3c-9.8,2.7-20.5,3.4-30.3,0.2c-10.2-3.1-18.9-10.7-23.4-20.4
		c-4.1-8.4-4.9-18-3.5-27.2C93.4,179.7,101,168.3,111.7,161.7z"/>
	<path class="st3" d="M176,156c7.7,0,15.3,0,23,0c0,28,0,56,0,84c-7.7,0-15.3,0-23,0C176,212,176,184,176,156z"/>
	<path class="st3" d="M223.3,156.6c7.7-0.1,15.3,0,23-0.1c10.8,18.4,22.2,36.4,31.8,55.4c1.6-18.5,4.2-36.9,6.6-55.4
		c7,0.1,14.1,0,21.1,0c-3.3,27.8-6.9,55.6-10.2,83.4c-7.8,0.1-15.6,0-23.4,0c-10.8-18.9-23.3-36.9-32.1-56.9
		c-0.1,19.1-3.8,37.9-5.7,56.9c-7.1,0.1-14.3,0-21.4,0C216.5,212.2,219.9,184.4,223.3,156.6z"/>
	<path class="st3" d="M395.6,156.5c7.2,0,14.4,0,21.6,0c5.8,14.6,11.1,29.4,16.9,44c6-14.6,11.7-29.4,17.8-44
		c7.2,0,14.3,0.1,21.5-0.1c4.5,27.8,8.5,55.7,12.8,83.5c-7.3,0-14.6,0.1-21.9,0c-2.1-15.6-3.8-31.3-6.2-46.8
		c-7,15.5-13.2,31.3-19.9,46.9c-3,0-5.9,0-8.9,0c-6.3-15.8-12.4-31.6-18.9-47.3c-2.6,15.7-4.7,31.5-7.2,47.3c-7.3,0-14.5,0-21.8,0
		C386.1,212.1,390.8,184.3,395.6,156.5z"/>
	<path class="st3" d="M488.8,240c10.6-27.9,21.2-55.7,32-83.4c7.8,0,15.7,0,23.5,0c10.5,27.8,21,55.6,31.5,83.4
		c-7.8,0-15.6,0.1-23.3-0.1c-1.8-4.9-3.5-9.7-5.5-14.5c-9.8,0.1-19.7,0-29.5,0c-1.8,4.9-3.8,9.7-5.6,14.5
		C504.1,240,496.4,240,488.8,240 M532.4,183.1c-3.1,8.5-6,17.1-8.8,25.7c5.8,0,11.6,0,17.5,0C538.2,200.2,535.5,191.6,532.4,183.1z"
		/>
</g>
</svg>
