<?xml version="1.0" encoding="UTF-8" ?>
<!DOCTYPE svg PUBLIC "-//W3C//DTD SVG 1.1//EN" "http://www.w3.org/Graphics/SVG/1.1/DTD/svg11.dtd">
<svg width="800pt" height="228pt" viewBox="0 0 800 228" version="1.1" xmlns="http://www.w3.org/2000/svg">
<g id="#fe7600ff">
<path fill="#fe7600" opacity="1.00" d=" M 0.00 0.00 L 800.00 0.00 L 800.00 113.03 C 784.93 112.92 769.87 113.32 754.81 112.96 C 761.25 109.32 767.29 104.40 770.69 97.69 C 774.39 90.57 775.54 82.20 774.38 74.29 C 774.36 72.38 772.23 71.95 770.88 71.21 C 754.21 64.79 737.31 58.95 720.79 52.16 C 722.45 47.50 724.27 42.50 728.46 39.50 C 734.99 34.46 744.87 34.57 751.33 39.69 C 754.71 42.22 756.61 46.10 758.45 49.79 C 763.62 48.88 768.75 47.73 773.77 46.16 C 771.40 39.54 767.97 33.07 762.37 28.64 C 752.84 20.70 739.11 18.40 727.45 22.48 C 718.77 25.61 711.62 32.47 707.81 40.84 C 704.47 47.65 704.42 55.41 704.90 62.82 C 722.75 69.53 740.68 76.04 758.41 83.08 C 757.28 87.80 756.14 92.98 752.28 96.30 C 746.41 101.37 737.39 101.70 730.58 98.40 C 725.66 96.06 722.96 91.08 720.61 86.44 C 715.64 87.51 710.66 88.57 705.67 89.55 C 707.66 99.78 715.04 108.26 724.17 112.95 C 681.49 112.93 638.82 113.37 596.15 113.00 C 596.36 82.91 596.30 52.82 596.18 22.73 C 590.50 22.57 584.82 22.58 579.14 22.78 C 579.25 52.84 579.41 82.91 579.12 112.97 C 574.41 112.94 569.70 113.06 565.00 113.41 C 554.35 114.16 543.66 113.75 533.00 113.85 C 523.41 113.74 513.81 114.14 504.24 113.50 C 493.25 112.60 482.22 113.20 471.21 112.95 C 464.56 101.53 457.46 90.38 450.55 79.11 C 456.70 76.19 462.77 72.33 466.15 66.21 C 471.53 57.17 471.25 45.21 465.78 36.28 C 461.57 29.20 454.07 24.17 445.91 23.06 C 441.29 22.44 436.63 22.64 432.00 22.64 C 419.05 22.77 406.10 22.51 393.15 22.78 C 393.19 52.86 393.35 82.93 393.08 113.01 C 358.38 113.07 323.69 113.00 288.99 113.07 C 275.71 82.90 262.93 52.52 249.86 22.26 C 246.04 22.19 242.16 21.80 238.37 22.43 C 235.94 25.28 234.87 28.98 233.36 32.35 C 221.88 59.24 210.44 86.14 198.95 113.02 C 174.31 112.98 149.66 113.32 125.01 113.10 C 97.27 112.83 69.54 113.26 41.80 113.09 C 41.49 102.76 41.57 92.41 41.74 82.07 C 52.51 81.99 63.29 82.35 74.06 81.94 C 89.55 81.27 102.60 66.42 101.48 50.99 C 101.31 35.70 87.23 22.39 72.02 22.68 C 56.36 22.66 40.69 22.59 25.03 22.77 C 25.18 52.88 25.30 82.99 25.00 113.10 C 16.67 112.99 8.33 113.02 0.00 113.02 L 0.00 0.00 Z" />
<path fill="#fe7600" opacity="1.00" d=" M 409.33 38.35 C 419.24 38.45 429.15 38.30 439.07 38.36 C 442.90 38.31 446.82 39.65 449.46 42.52 C 454.48 47.67 454.25 57.03 448.70 61.71 C 445.29 64.87 440.38 64.98 436.02 64.97 C 427.12 64.86 418.23 65.02 409.34 64.87 C 409.49 56.03 409.40 47.19 409.33 38.35 Z" />
<path fill="#fe7600" opacity="1.00" d=" M 41.73 38.77 C 50.49 38.60 59.24 38.72 68.00 38.63 C 72.21 38.58 76.82 38.96 80.11 41.90 C 86.63 46.92 86.55 58.03 80.08 63.06 C 76.83 66.05 72.19 66.35 68.00 66.32 C 59.24 66.24 50.48 66.35 41.73 66.19 C 41.56 57.05 41.55 47.91 41.73 38.77 Z" />
<path fill="#fe7600" opacity="1.00" d=" M 231.07 78.69 C 235.08 68.94 238.99 59.11 243.73 49.69 C 248.13 59.23 252.35 68.87 256.14 78.67 C 247.79 78.75 239.43 78.72 231.07 78.69 Z" />
<path fill="#fe7600" opacity="1.00" d=" M 409.66 80.76 C 417.07 80.59 424.48 80.51 431.89 80.92 C 436.42 88.46 440.82 96.08 445.50 103.53 C 447.40 106.61 449.36 109.69 450.73 113.06 C 437.07 113.03 423.41 112.96 409.76 113.13 C 409.38 102.35 409.51 91.55 409.66 80.76 Z" />
<path fill="#fe7600" opacity="1.00" d=" M 224.99 95.00 C 227.22 94.24 229.63 94.37 231.95 94.31 C 242.22 94.44 252.49 94.49 262.75 94.40 C 265.52 100.62 268.17 106.90 270.97 113.10 C 252.95 113.18 234.94 113.06 216.93 112.98 C 219.60 106.99 221.45 100.56 224.99 95.00 Z" />
</g>
<g id="#ffffffff">
<path fill="#ffffff" opacity="1.00" d=" M 727.45 22.48 C 739.11 18.40 752.84 20.70 762.37 28.64 C 767.97 33.07 771.40 39.54 773.77 46.16 C 768.75 47.73 763.62 48.88 758.45 49.79 C 756.61 46.10 754.71 42.22 751.33 39.69 C 744.87 34.57 734.99 34.46 728.46 39.50 C 724.27 42.50 722.45 47.50 720.79 52.16 C 737.31 58.95 754.21 64.79 770.88 71.21 C 772.23 71.95 774.36 72.38 774.38 74.29 C 775.54 82.20 774.39 90.57 770.69 97.69 C 767.29 104.40 761.25 109.32 754.81 112.96 C 744.60 113.19 734.37 113.28 724.17 112.95 C 715.04 108.26 707.66 99.78 705.67 89.55 C 710.66 88.57 715.64 87.51 720.61 86.44 C 722.96 91.08 725.66 96.06 730.58 98.40 C 737.39 101.70 746.41 101.37 752.28 96.30 C 756.14 92.98 757.28 87.80 758.41 83.08 C 740.68 76.04 722.75 69.53 704.90 62.82 C 704.42 55.41 704.47 47.65 707.81 40.84 C 711.62 32.47 718.77 25.61 727.45 22.48 Z" />
<path fill="#ffffff" opacity="1.00" d=" M 238.37 22.43 C 242.16 21.80 246.04 22.19 249.86 22.26 C 262.93 52.52 275.71 82.90 288.99 113.07 C 282.98 113.10 276.97 113.10 270.97 113.10 C 268.17 106.90 265.52 100.62 262.75 94.40 C 252.49 94.49 242.22 94.44 231.95 94.31 C 229.63 94.37 227.22 94.24 224.99 95.00 C 221.45 100.56 219.60 106.99 216.93 112.98 C 210.94 113.03 204.95 113.04 198.95 113.02 C 210.44 86.14 221.88 59.24 233.36 32.35 C 234.87 28.98 235.94 25.28 238.37 22.43 M 231.07 78.69 C 239.43 78.72 247.79 78.75 256.14 78.67 C 252.35 68.87 248.13 59.23 243.73 49.69 C 238.99 59.11 235.08 68.94 231.07 78.69 Z" />
<path fill="#ffffff" opacity="1.00" d=" M 25.03 22.77 C 40.69 22.59 56.36 22.66 72.02 22.68 C 87.23 22.39 101.31 35.70 101.48 50.99 C 102.60 66.42 89.55 81.27 74.06 81.94 C 63.29 82.35 52.51 81.99 41.74 82.07 C 41.57 92.41 41.49 102.76 41.80 113.09 C 36.20 113.05 30.60 113.14 25.00 113.10 C 25.30 82.99 25.18 52.88 25.03 22.77 M 41.73 38.77 C 41.55 47.91 41.56 57.05 41.73 66.19 C 50.48 66.35 59.24 66.24 68.00 66.32 C 72.19 66.35 76.83 66.05 80.08 63.06 C 86.55 58.03 86.63 46.92 80.11 41.90 C 76.82 38.96 72.21 38.58 68.00 38.63 C 59.24 38.72 50.49 38.60 41.73 38.77 Z" />
<path fill="#ffffff" opacity="1.00" d=" M 393.15 22.78 C 406.10 22.51 419.05 22.77 432.00 22.64 C 436.63 22.64 441.29 22.44 445.91 23.06 C 454.07 24.17 461.57 29.20 465.78 36.28 C 471.25 45.21 471.53 57.17 466.15 66.21 C 462.77 72.33 456.70 76.19 450.55 79.11 C 457.46 90.38 464.56 101.53 471.21 112.95 C 467.61 112.97 464.02 113.04 460.43 113.13 C 460.58 131.09 460.29 149.05 460.37 167.00 C 460.28 179.54 460.70 192.08 460.26 204.62 C 457.12 204.62 453.98 204.64 450.84 204.68 C 450.50 174.14 450.75 143.60 450.73 113.06 C 449.36 109.69 447.40 106.61 445.50 103.53 C 440.82 96.08 436.42 88.46 431.89 80.92 C 424.48 80.51 417.07 80.59 409.66 80.76 C 409.51 91.55 409.38 102.35 409.76 113.13 C 404.20 113.16 398.64 113.02 393.08 113.01 C 393.35 82.93 393.19 52.86 393.15 22.78 M 409.33 38.35 C 409.40 47.19 409.49 56.03 409.34 64.87 C 418.23 65.02 427.12 64.86 436.02 64.97 C 440.38 64.98 445.29 64.87 448.70 61.71 C 454.25 57.03 454.48 47.67 449.46 42.52 C 446.82 39.65 442.90 38.31 439.07 38.36 C 429.15 38.30 419.24 38.45 409.33 38.35 Z" />
<path fill="#ffffff" opacity="1.00" d=" M 579.14 22.78 C 584.82 22.58 590.50 22.57 596.18 22.73 C 596.30 52.82 596.36 82.91 596.15 113.00 C 590.47 113.04 584.79 113.03 579.12 112.97 C 579.41 82.91 579.25 52.84 579.14 22.78 Z" />
<path fill="#ffffff" opacity="1.00" d=" M 25.35 114.05 C 37.90 113.73 50.46 113.95 63.02 113.88 C 70.52 113.74 78.22 116.09 83.87 121.14 C 91.06 127.43 94.65 137.83 92.14 147.15 C 89.68 158.73 78.88 168.00 66.99 168.32 C 56.24 168.56 45.47 168.30 34.72 168.28 C 34.25 180.39 34.67 192.51 34.65 204.63 C 31.51 204.62 28.38 204.65 25.24 204.72 C 25.19 174.50 25.38 144.27 25.35 114.05 M 34.66 123.00 C 34.58 135.24 34.39 147.49 34.77 159.72 C 43.19 159.64 51.60 159.67 60.02 159.71 C 64.51 159.73 69.22 159.45 73.20 157.16 C 78.97 154.01 82.63 147.55 82.45 141.00 C 82.56 131.69 74.50 123.02 65.07 123.03 C 54.93 122.91 44.79 123.05 34.66 123.00 Z" />
<path fill="#ffffff" opacity="1.00" d=" M 124.99 113.90 C 138.35 113.88 151.70 113.90 165.05 113.95 C 171.64 113.98 178.23 116.44 183.14 120.87 C 190.82 128.00 194.13 139.66 190.74 149.67 C 187.73 158.87 179.60 165.63 170.32 167.91 C 178.19 180.15 185.99 192.45 193.81 204.72 C 189.96 204.68 186.12 204.71 182.27 204.70 C 175.77 194.23 169.29 183.75 162.62 173.38 C 161.07 171.40 160.02 168.02 156.94 168.35 C 149.34 168.28 141.74 168.43 134.14 168.28 C 133.85 180.44 134.17 192.60 133.95 204.76 C 130.98 204.74 128.02 204.74 125.06 204.76 C 124.90 174.47 124.83 144.19 124.99 113.90 M 134.06 123.08 C 134.16 135.30 133.80 147.52 134.31 159.73 C 143.56 159.71 152.81 159.55 162.06 159.63 C 167.28 159.76 172.84 158.46 176.59 154.60 C 183.05 147.94 183.28 136.60 177.48 129.45 C 174.34 125.36 169.23 122.92 164.07 122.99 C 154.07 122.98 144.06 122.96 134.06 123.08 Z" />
<path fill="#ffffff" opacity="1.00" d=" M 235.76 113.88 C 254.39 114.12 273.02 113.63 291.64 114.08 C 291.60 117.02 291.60 119.96 291.65 122.90 C 276.10 123.14 260.56 122.93 245.02 123.02 C 245.00 133.34 244.99 143.66 245.02 153.98 C 257.11 154.05 269.21 153.92 281.30 154.03 C 281.42 157.01 281.43 160.00 281.39 162.99 C 269.26 163.03 257.14 162.98 245.02 163.02 C 245.01 173.96 244.93 184.91 245.07 195.85 C 260.39 195.90 275.71 195.82 291.03 195.89 C 291.00 198.82 290.97 201.76 290.91 204.69 C 272.54 204.85 254.17 204.54 235.80 204.69 C 235.38 174.42 235.73 144.15 235.76 113.88 Z" />
<path fill="#ffffff" opacity="1.00" d=" M 328.85 113.77 C 332.18 113.78 335.50 113.81 338.83 113.90 C 346.93 131.58 355.02 149.26 363.11 166.95 C 365.58 172.18 367.60 177.66 370.77 182.53 C 379.48 164.11 387.30 145.27 395.79 126.74 C 397.92 122.49 399.11 117.66 402.14 113.93 C 405.27 113.60 408.44 113.79 411.59 113.85 C 411.38 144.20 411.63 174.55 411.62 204.90 C 408.37 204.96 405.12 204.94 401.87 204.90 C 401.61 186.61 401.66 168.31 401.78 150.01 C 401.87 145.84 401.88 141.65 401.50 137.49 C 398.04 142.44 396.29 148.28 393.69 153.67 C 387.45 167.59 381.00 181.42 374.82 195.37 C 371.90 195.44 368.99 195.45 366.09 195.42 C 359.02 180.02 351.75 164.71 344.76 149.28 C 342.92 145.32 341.28 141.24 338.88 137.58 C 338.29 143.03 338.62 148.52 338.65 153.99 C 338.69 170.90 338.59 187.80 338.70 204.70 C 335.44 204.75 332.17 204.83 328.91 204.89 C 328.78 174.52 328.77 144.15 328.85 113.77 Z" />
<path fill="#ffffff" opacity="1.00" d=" M 504.24 113.50 C 513.81 114.14 523.41 113.74 533.00 113.85 C 543.66 113.75 554.35 114.16 565.00 113.41 C 565.41 116.55 565.64 119.71 565.87 122.87 C 548.30 123.21 530.72 122.85 513.15 123.06 C 513.13 133.35 513.13 143.65 513.15 153.94 C 527.30 154.12 541.44 153.84 555.59 154.10 C 555.58 157.04 555.61 159.98 555.66 162.91 C 541.49 163.15 527.32 162.88 513.15 163.06 C 513.14 173.98 513.11 184.91 513.17 195.83 C 530.46 195.94 547.76 195.80 565.05 195.90 C 565.00 198.83 564.97 201.76 564.92 204.69 C 544.62 204.53 524.31 204.79 504.01 204.75 C 503.75 191.50 504.08 178.25 503.98 165.00 C 504.07 147.84 503.50 130.66 504.24 113.50 Z" />
<path fill="#ffffff" opacity="1.00" d=" M 607.94 113.91 C 621.31 113.87 634.68 113.92 648.05 113.95 C 656.51 113.97 665.01 118.10 669.80 125.16 C 674.88 132.37 676.65 142.08 673.39 150.41 C 670.24 159.27 662.25 165.97 653.04 167.75 C 660.94 179.94 668.99 192.07 676.36 204.58 C 672.65 204.67 668.95 204.74 665.25 204.73 C 659.64 195.69 654.02 186.65 648.27 177.69 C 646.29 174.69 644.65 171.43 642.25 168.73 C 633.91 167.94 625.41 168.22 617.05 168.85 C 616.94 180.82 617.13 192.79 616.95 204.76 C 613.97 204.74 610.99 204.73 608.02 204.75 C 607.77 174.47 607.93 144.19 607.94 113.91 M 617.06 123.06 C 617.04 135.28 616.90 147.51 617.14 159.73 C 626.44 159.59 635.75 159.59 645.06 159.64 C 650.04 159.73 655.35 158.60 659.07 155.06 C 665.50 148.87 666.30 138.00 661.31 130.70 C 658.28 125.92 652.72 122.91 647.06 123.00 C 637.06 122.97 627.06 122.98 617.06 123.06 Z" />
<path fill="#ffffff" opacity="1.00" d=" M 718.01 113.95 C 736.68 113.86 755.34 113.91 774.01 113.90 C 774.01 116.93 774.01 119.96 774.02 123.00 C 758.48 123.10 742.93 122.83 727.40 123.12 C 727.17 133.38 727.32 143.64 727.28 153.91 C 739.52 154.12 751.77 153.93 764.01 154.00 C 764.01 157.00 764.01 160.00 764.02 163.00 C 751.78 163.07 739.54 162.88 727.30 163.09 C 727.33 173.96 727.28 184.82 727.22 195.68 C 742.58 196.07 757.94 195.80 773.30 195.83 C 773.31 198.78 773.27 201.73 773.21 204.69 C 754.84 204.60 736.46 204.80 718.09 204.69 C 717.86 174.44 718.04 144.19 718.01 113.95 Z" />
</g>
<g id="#231f20ff">
<path fill="#231f20" opacity="1.00" d=" M 0.00 113.02 C 8.33 113.02 16.67 112.99 25.00 113.10 C 30.60 113.14 36.20 113.05 41.80 113.09 C 69.54 113.26 97.27 112.83 125.01 113.10 C 149.66 113.32 174.31 112.98 198.95 113.02 C 204.95 113.04 210.94 113.03 216.93 112.98 C 234.94 113.06 252.95 113.18 270.97 113.10 C 276.97 113.10 282.98 113.10 288.99 113.07 C 323.69 113.00 358.38 113.07 393.08 113.01 C 398.64 113.02 404.20 113.16 409.76 113.13 C 423.41 112.96 437.07 113.03 450.73 113.06 C 450.75 143.60 450.50 174.14 450.84 204.68 C 453.98 204.64 457.12 204.62 460.26 204.62 C 460.70 192.08 460.28 179.54 460.37 167.00 C 460.29 149.05 460.58 131.09 460.43 113.13 C 464.02 113.04 467.61 112.97 471.21 112.95 C 482.22 113.20 493.25 112.60 504.24 113.50 C 503.50 130.66 504.07 147.84 503.98 165.00 C 504.08 178.25 503.75 191.50 504.01 204.75 C 524.31 204.79 544.62 204.53 564.92 204.69 C 564.97 201.76 565.00 198.83 565.05 195.90 C 547.76 195.80 530.46 195.94 513.17 195.83 C 513.11 184.91 513.14 173.98 513.15 163.06 C 527.32 162.88 541.49 163.15 555.66 162.91 C 555.61 159.98 555.58 157.04 555.59 154.10 C 541.44 153.84 527.30 154.12 513.15 153.94 C 513.13 143.65 513.13 133.35 513.15 123.06 C 530.72 122.85 548.30 123.21 565.87 122.87 C 565.64 119.71 565.41 116.55 565.00 113.41 C 569.70 113.06 574.41 112.94 579.12 112.97 C 584.79 113.03 590.47 113.04 596.15 113.00 C 638.82 113.37 681.49 112.93 724.17 112.95 C 734.37 113.28 744.60 113.19 754.81 112.96 C 769.87 113.32 784.93 112.92 800.00 113.03 L 800.00 228.00 L 0.00 228.00 L 0.00 113.02 M 25.35 114.05 C 25.38 144.27 25.19 174.50 25.24 204.72 C 28.38 204.65 31.51 204.62 34.65 204.63 C 34.67 192.51 34.25 180.39 34.72 168.28 C 45.47 168.30 56.24 168.56 66.99 168.32 C 78.88 168.00 89.68 158.73 92.14 147.15 C 94.65 137.83 91.06 127.43 83.87 121.14 C 78.22 116.09 70.52 113.74 63.02 113.88 C 50.46 113.95 37.90 113.73 25.35 114.05 M 124.99 113.90 C 124.83 144.19 124.90 174.47 125.06 204.76 C 128.02 204.74 130.98 204.74 133.95 204.76 C 134.17 192.60 133.85 180.44 134.14 168.28 C 141.74 168.43 149.34 168.28 156.94 168.35 C 160.02 168.02 161.07 171.40 162.62 173.38 C 169.29 183.75 175.77 194.23 182.27 204.70 C 186.12 204.71 189.96 204.68 193.81 204.72 C 185.99 192.45 178.19 180.15 170.32 167.91 C 179.60 165.63 187.73 158.87 190.74 149.67 C 194.13 139.66 190.82 128.00 183.14 120.87 C 178.23 116.44 171.64 113.98 165.05 113.95 C 151.70 113.90 138.35 113.88 124.99 113.90 M 235.76 113.88 C 235.73 144.15 235.38 174.42 235.80 204.69 C 254.17 204.54 272.54 204.85 290.91 204.69 C 290.97 201.76 291.00 198.82 291.03 195.89 C 275.71 195.82 260.39 195.90 245.07 195.85 C 244.93 184.91 245.01 173.96 245.02 163.02 C 257.14 162.98 269.26 163.03 281.39 162.99 C 281.43 160.00 281.42 157.01 281.30 154.03 C 269.21 153.92 257.11 154.05 245.02 153.98 C 244.99 143.66 245.00 133.34 245.02 123.02 C 260.56 122.93 276.10 123.14 291.65 122.90 C 291.60 119.96 291.60 117.02 291.64 114.08 C 273.02 113.63 254.39 114.12 235.76 113.88 M 328.85 113.77 C 328.77 144.15 328.78 174.52 328.91 204.89 C 332.17 204.83 335.44 204.75 338.70 204.70 C 338.59 187.80 338.69 170.90 338.65 153.99 C 338.62 148.52 338.29 143.03 338.88 137.58 C 341.28 141.24 342.92 145.32 344.76 149.28 C 351.75 164.71 359.02 180.02 366.09 195.42 C 368.99 195.45 371.90 195.44 374.82 195.37 C 381.00 181.42 387.45 167.59 393.69 153.67 C 396.29 148.28 398.04 142.44 401.50 137.49 C 401.88 141.65 401.87 145.84 401.78 150.01 C 401.66 168.31 401.61 186.61 401.87 204.90 C 405.12 204.94 408.37 204.96 411.62 204.90 C 411.63 174.55 411.38 144.20 411.59 113.85 C 408.44 113.79 405.27 113.60 402.14 113.93 C 399.11 117.66 397.92 122.49 395.79 126.74 C 387.30 145.27 379.48 164.11 370.77 182.53 C 367.60 177.66 365.58 172.18 363.11 166.95 C 355.02 149.26 346.93 131.58 338.83 113.90 C 335.50 113.81 332.18 113.78 328.85 113.77 M 607.94 113.91 C 607.93 144.19 607.77 174.47 608.02 204.75 C 610.99 204.73 613.97 204.74 616.95 204.76 C 617.13 192.79 616.94 180.82 617.05 168.85 C 625.41 168.22 633.91 167.94 642.25 168.73 C 644.65 171.43 646.29 174.69 648.27 177.69 C 654.02 186.65 659.64 195.69 665.25 204.73 C 668.95 204.74 672.65 204.67 676.36 204.58 C 668.99 192.07 660.94 179.94 653.04 167.75 C 662.25 165.97 670.24 159.27 673.39 150.41 C 676.65 142.08 674.88 132.37 669.80 125.16 C 665.01 118.10 656.51 113.97 648.05 113.95 C 634.68 113.92 621.31 113.87 607.94 113.91 M 718.01 113.95 C 718.04 144.19 717.86 174.44 718.09 204.69 C 736.46 204.80 754.84 204.60 773.21 204.69 C 773.27 201.73 773.31 198.78 773.30 195.83 C 757.94 195.80 742.58 196.07 727.22 195.68 C 727.28 184.82 727.33 173.96 727.30 163.09 C 739.54 162.88 751.78 163.07 764.02 163.00 C 764.01 160.00 764.01 157.00 764.01 154.00 C 751.77 153.93 739.52 154.12 727.28 153.91 C 727.32 143.64 727.17 133.38 727.40 123.12 C 742.93 122.83 758.48 123.10 774.02 123.00 C 774.01 119.96 774.01 116.93 774.01 113.90 C 755.34 113.91 736.68 113.86 718.01 113.95 Z" />
<path fill="#231f20" opacity="1.00" d=" M 34.66 123.00 C 44.79 123.05 54.93 122.91 65.07 123.03 C 74.50 123.02 82.56 131.69 82.45 141.00 C 82.63 147.55 78.97 154.01 73.20 157.16 C 69.22 159.45 64.51 159.73 60.02 159.71 C 51.60 159.67 43.19 159.64 34.77 159.72 C 34.39 147.49 34.58 135.24 34.66 123.00 Z" />
<path fill="#231f20" opacity="1.00" d=" M 134.06 123.08 C 144.06 122.96 154.07 122.98 164.07 122.99 C 169.23 122.92 174.34 125.36 177.48 129.45 C 183.28 136.60 183.05 147.94 176.59 154.60 C 172.84 158.46 167.28 159.76 162.06 159.63 C 152.81 159.55 143.56 159.71 134.31 159.73 C 133.80 147.52 134.16 135.30 134.06 123.08 Z" />
<path fill="#231f20" opacity="1.00" d=" M 617.06 123.06 C 627.06 122.98 637.06 122.97 647.06 123.00 C 652.72 122.91 658.28 125.92 661.31 130.70 C 666.30 138.00 665.50 148.87 659.07 155.06 C 655.35 158.60 650.04 159.73 645.06 159.64 C 635.75 159.59 626.44 159.59 617.14 159.73 C 616.90 147.51 617.04 135.28 617.06 123.06 Z" />
</g>
</svg>
