<?xml version="1.0" encoding="UTF-8" ?>
<!DOCTYPE svg PUBLIC "-//W3C//DTD SVG 1.1//EN" "http://www.w3.org/Graphics/SVG/1.1/DTD/svg11.dtd">
<svg width="647pt" height="300pt" viewBox="0 0 647 300" version="1.1" xmlns="http://www.w3.org/2000/svg">
<g id="#ffffffff">
<path fill="#ffffff" opacity="1.00" d=" M 47.49 33.65 C 58.54 25.67 73.00 23.92 86.16 26.31 C 92.72 27.55 99.31 29.62 104.68 33.73 C 103.05 40.47 102.51 47.47 100.38 54.08 C 93.14 48.81 84.12 45.82 75.13 46.65 C 67.32 47.49 59.43 51.64 55.84 58.89 C 52.08 66.62 51.64 76.47 56.45 83.86 C 60.64 90.45 68.65 93.63 76.25 93.58 C 82.67 93.73 88.70 91.28 94.60 89.05 C 93.22 96.25 92.65 103.70 90.52 110.71 C 73.03 118.41 49.78 114.76 37.50 99.40 C 29.51 89.23 27.28 75.40 29.48 62.87 C 31.62 51.40 37.46 40.08 47.49 33.65 Z" />
<path fill="#ffffff" opacity="1.00" d=" M 463.75 27.00 C 471.94 27.00 480.14 27.00 488.33 27.00 C 488.34 36.29 488.32 45.58 488.34 54.87 C 498.55 55.18 508.76 54.87 518.97 55.03 C 519.03 63.16 518.98 71.29 519.00 79.42 C 509.09 79.74 499.15 79.32 489.24 79.62 C 489.05 79.79 488.67 80.14 488.47 80.31 C 488.11 90.86 488.48 101.43 488.29 111.99 C 480.18 112.01 472.06 111.98 463.95 112.02 C 463.24 101.21 463.99 90.35 463.55 79.53 C 453.25 79.54 442.95 79.52 432.65 79.54 C 432.71 71.36 432.61 63.18 432.71 55.01 C 443.03 54.99 453.35 55.01 463.67 54.99 C 463.71 45.66 463.57 36.33 463.75 27.00 Z" />
<path fill="#ffffff" opacity="1.00" d=" M 138.18 28.69 C 147.52 28.65 156.85 28.65 166.18 28.69 C 172.14 56.40 178.19 84.10 183.83 111.87 C 176.60 112.12 169.36 111.99 162.13 111.95 C 160.86 107.16 159.76 102.32 158.55 97.52 C 148.71 97.67 138.86 97.27 129.04 97.73 C 126.79 102.49 124.62 107.28 122.24 111.98 C 113.89 112.01 105.55 112.01 97.20 111.98 C 101.34 101.58 107.20 91.94 111.77 81.72 C 120.48 63.99 129.47 46.41 138.18 28.69 M 137.30 78.99 C 143.07 78.84 148.83 79.32 154.60 79.26 C 152.61 70.53 150.68 61.79 148.78 53.05 C 144.85 61.65 141.13 70.35 137.30 78.99 Z" />
<path fill="#ffffff" opacity="1.00" d=" M 203.87 32.85 C 204.30 31.53 203.91 29.74 205.08 28.79 C 213.04 28.50 221.02 28.72 228.99 28.70 C 238.08 44.38 246.82 60.26 256.04 75.86 C 258.60 60.18 260.51 44.40 263.08 28.72 C 270.75 28.48 278.41 29.28 286.08 29.00 C 282.33 56.69 278.23 84.33 274.31 112.00 C 266.77 112.00 259.24 111.99 251.70 112.01 C 242.02 94.94 232.44 77.81 222.77 60.74 C 220.29 77.76 217.95 94.81 215.47 111.83 C 208.60 112.16 201.71 111.96 194.83 111.98 C 193.01 112.37 192.95 110.19 193.29 109.03 C 196.77 83.63 200.39 58.24 203.87 32.85 Z" />
<path fill="#ffffff" opacity="1.00" d=" M 324.36 31.13 C 324.95 30.11 325.48 28.40 327.01 28.68 C 335.73 28.61 344.46 28.73 353.18 28.64 C 359.35 56.30 364.64 84.16 370.71 111.85 C 363.33 112.82 355.74 112.31 348.30 112.11 C 347.34 107.25 346.22 102.43 345.26 97.57 C 342.60 96.74 339.79 97.02 337.06 96.99 C 330.68 97.05 324.30 96.93 317.93 97.02 C 316.57 96.76 315.85 98.15 315.36 99.13 C 313.34 103.43 311.37 107.74 309.28 112.00 C 300.84 111.92 292.39 112.16 283.96 111.87 C 297.43 84.96 310.99 58.09 324.36 31.13 M 324.27 79.14 C 330.10 79.36 335.93 79.20 341.76 79.26 C 339.92 70.40 337.91 61.58 336.06 52.73 C 332.03 61.49 328.28 70.37 324.27 79.14 Z" />
<path fill="#ffffff" opacity="1.00" d=" M 379.65 111.95 C 383.43 84.16 387.55 56.41 391.53 28.64 C 399.39 28.70 407.25 28.65 415.12 28.67 C 412.49 50.14 409.11 71.51 406.41 92.97 C 414.79 93.03 423.18 92.99 431.56 93.00 C 431.00 99.36 429.98 105.67 429.16 112.00 C 412.66 111.97 396.15 112.06 379.65 111.95 Z" />
<path fill="#ffffff" opacity="1.00" d=" M 368.22 160.32 C 381.57 158.07 396.03 160.86 406.92 169.11 C 415.23 175.32 421.15 184.65 423.10 194.85 C 426.13 209.40 421.89 225.60 410.98 235.93 C 394.49 252.19 366.01 253.30 347.79 239.27 C 337.49 231.53 331.01 218.90 330.97 205.99 C 330.54 193.59 335.23 180.92 344.27 172.32 C 350.73 165.92 359.28 161.82 368.22 160.32 M 372.49 179.65 C 364.05 181.40 356.74 187.91 354.14 196.14 C 351.68 203.70 353.55 212.37 358.54 218.48 C 363.77 225.07 372.59 228.58 380.91 227.31 C 389.85 226.12 397.81 219.56 400.58 210.96 C 403.42 202.73 401.36 193.01 395.21 186.79 C 389.57 180.61 380.63 177.98 372.49 179.65 Z" />
<path fill="#ffffff" opacity="1.00" d=" M 190.35 181.90 C 191.98 172.25 199.44 163.82 209.01 161.50 C 220.60 158.75 232.81 161.88 243.18 167.26 C 240.42 173.01 237.48 178.68 234.67 184.41 C 230.49 181.11 225.48 178.23 219.95 178.73 C 216.12 178.94 211.69 181.72 211.97 186.01 C 212.23 189.70 216.06 191.64 219.14 192.74 C 226.96 195.30 235.92 196.88 241.43 203.60 C 247.63 210.47 246.93 220.66 244.85 229.03 C 242.99 237.31 235.83 243.34 228.03 245.95 C 214.03 250.76 198.09 247.12 186.36 238.48 C 189.38 232.65 192.51 226.87 195.36 220.95 C 200.45 225.17 206.28 229.14 213.11 229.47 C 217.49 229.81 223.03 227.89 223.92 223.03 C 224.86 219.48 222.43 216.18 219.30 214.78 C 211.50 211.06 202.06 210.58 195.40 204.60 C 189.33 198.86 188.99 189.61 190.35 181.90 Z" />
<path fill="#ffffff" opacity="1.00" d=" M 261.00 162.52 C 272.34 162.50 283.68 162.53 295.02 162.50 C 299.94 162.50 305.03 163.03 309.41 165.44 C 316.62 169.29 321.47 176.85 322.40 184.93 C 323.39 193.48 322.40 202.96 316.83 209.88 C 312.28 215.45 304.94 217.93 297.94 218.21 C 292.71 218.35 287.48 218.20 282.25 218.25 C 282.30 227.38 282.16 236.51 282.33 245.63 C 275.22 245.85 268.11 245.68 261.01 245.74 C 260.99 218.00 261.01 190.26 261.00 162.52 M 282.25 180.26 C 282.26 187.09 282.25 193.93 282.25 200.76 C 287.49 200.54 293.64 201.59 298.00 197.95 C 301.49 193.95 301.49 187.03 297.98 183.03 C 293.75 179.01 287.50 180.51 282.25 180.26 Z" />
<path fill="#ffffff" opacity="1.00" d=" M 442.09 162.50 C 452.39 162.59 462.70 162.38 472.99 162.59 C 481.24 162.99 490.46 165.55 495.11 172.96 C 499.44 180.24 499.50 189.37 497.63 197.42 C 495.62 205.42 488.73 210.97 481.22 213.59 C 488.08 224.27 494.83 235.01 501.60 245.74 C 493.29 245.70 484.97 245.79 476.66 245.69 C 470.18 234.86 463.65 224.08 457.15 213.26 C 455.80 224.08 454.52 234.91 453.20 245.74 C 446.10 245.73 439.01 245.74 431.91 245.73 C 435.22 217.97 438.72 190.24 442.09 162.50 M 458.65 199.29 C 463.85 199.41 469.61 199.26 473.81 195.74 C 477.50 192.85 478.41 186.46 474.66 183.26 C 470.96 180.23 465.84 180.55 461.35 180.41 C 460.34 186.69 459.57 193.00 458.65 199.29 Z" />
<path fill="#ffffff" opacity="1.00" d=" M 508.75 162.52 C 527.92 162.51 547.08 162.51 566.25 162.52 C 566.25 168.68 566.25 174.84 566.25 181.00 C 560.25 181.01 554.25 180.99 548.25 181.01 C 548.26 202.58 548.25 224.16 548.25 245.73 C 540.92 245.73 533.59 245.73 526.26 245.74 C 526.27 224.16 526.27 202.58 526.26 181.00 C 520.42 180.99 514.59 181.00 508.75 181.00 C 508.74 174.84 508.74 168.68 508.75 162.52 Z" />
</g>
<g id="#000000ff">
<path fill="#000000" opacity="1.00" d=" M 6.00 6.00 C 184.67 6.00 363.33 6.00 542.00 6.00 C 541.99 46.37 542.01 86.74 542.00 127.10 C 541.98 131.43 542.08 135.76 541.94 140.09 L 541.88 141.01 C 486.65 141.09 431.41 140.80 376.19 141.16 C 289.36 140.80 202.52 141.10 115.69 141.00 C 79.13 141.00 42.56 141.00 6.00 141.00 C 6.00 96.00 6.00 51.00 6.00 6.00 M 47.49 33.65 C 37.46 40.08 31.62 51.40 29.48 62.87 C 27.28 75.40 29.51 89.23 37.50 99.40 C 49.78 114.76 73.03 118.41 90.52 110.71 C 92.65 103.70 93.22 96.25 94.60 89.05 C 88.70 91.28 82.67 93.73 76.25 93.58 C 68.65 93.63 60.64 90.45 56.45 83.86 C 51.64 76.47 52.08 66.62 55.84 58.89 C 59.43 51.64 67.32 47.49 75.13 46.65 C 84.12 45.82 93.14 48.81 100.38 54.08 C 102.51 47.47 103.05 40.47 104.68 33.73 C 99.31 29.62 92.72 27.55 86.16 26.31 C 73.00 23.92 58.54 25.67 47.49 33.65 M 463.75 27.00 C 463.57 36.33 463.71 45.66 463.67 54.99 C 453.35 55.01 443.03 54.99 432.71 55.01 C 432.61 63.18 432.71 71.36 432.65 79.54 C 442.95 79.52 453.25 79.54 463.55 79.53 C 463.99 90.35 463.24 101.21 463.95 112.02 C 472.06 111.98 480.18 112.01 488.29 111.99 C 488.48 101.43 488.11 90.86 488.47 80.31 C 488.67 80.14 489.05 79.79 489.24 79.62 C 499.15 79.32 509.09 79.74 519.00 79.42 C 518.98 71.29 519.03 63.16 518.97 55.03 C 508.76 54.87 498.55 55.18 488.34 54.87 C 488.32 45.58 488.34 36.29 488.33 27.00 C 480.14 27.00 471.94 27.00 463.75 27.00 M 138.18 28.69 C 129.47 46.41 120.48 63.99 111.77 81.72 C 107.20 91.94 101.34 101.58 97.20 111.98 C 105.55 112.01 113.89 112.01 122.24 111.98 C 124.62 107.28 126.79 102.49 129.04 97.73 C 138.86 97.27 148.71 97.67 158.55 97.52 C 159.76 102.32 160.86 107.16 162.13 111.95 C 169.36 111.99 176.60 112.12 183.83 111.87 C 178.19 84.10 172.14 56.40 166.18 28.69 C 156.85 28.65 147.52 28.65 138.18 28.69 M 203.87 32.85 C 200.39 58.24 196.77 83.63 193.29 109.03 C 192.95 110.19 193.01 112.37 194.83 111.98 C 201.71 111.96 208.60 112.16 215.47 111.83 C 217.95 94.81 220.29 77.76 222.77 60.74 C 232.44 77.81 242.02 94.94 251.70 112.01 C 259.24 111.99 266.77 112.00 274.31 112.00 C 278.23 84.33 282.33 56.69 286.08 29.00 C 278.41 29.28 270.75 28.48 263.08 28.72 C 260.51 44.40 258.60 60.18 256.04 75.86 C 246.82 60.26 238.08 44.38 228.99 28.70 C 221.02 28.72 213.04 28.50 205.08 28.79 C 203.91 29.74 204.30 31.53 203.87 32.85 M 324.36 31.13 C 310.99 58.09 297.43 84.96 283.96 111.87 C 292.39 112.16 300.84 111.92 309.28 112.00 C 311.37 107.74 313.34 103.43 315.36 99.13 C 315.85 98.15 316.57 96.76 317.93 97.02 C 324.30 96.93 330.68 97.05 337.06 96.99 C 339.79 97.02 342.60 96.74 345.26 97.57 C 346.22 102.43 347.34 107.25 348.30 112.11 C 355.74 112.31 363.33 112.82 370.71 111.85 C 364.64 84.16 359.35 56.30 353.18 28.64 C 344.46 28.73 335.73 28.61 327.01 28.68 C 325.48 28.40 324.95 30.11 324.36 31.13 M 379.65 111.95 C 396.15 112.06 412.66 111.97 429.16 112.00 C 429.98 105.67 431.00 99.36 431.56 93.00 C 423.18 92.99 414.79 93.03 406.41 92.97 C 409.11 71.51 412.49 50.14 415.12 28.67 C 407.25 28.65 399.39 28.70 391.53 28.64 C 387.55 56.41 383.43 84.16 379.65 111.95 Z" />
<path fill="#000000" opacity="1.00" d=" M 324.27 79.14 C 328.28 70.37 332.03 61.49 336.06 52.73 C 337.91 61.58 339.92 70.40 341.76 79.26 C 335.93 79.20 330.10 79.36 324.27 79.14 Z" />
<path fill="#000000" opacity="1.00" d=" M 137.30 78.99 C 141.13 70.35 144.85 61.65 148.78 53.05 C 150.68 61.79 152.61 70.53 154.60 79.26 C 148.83 79.32 143.07 78.84 137.30 78.99 Z" />
</g>
<g id="#d3e273ff">
<path fill="#d3e273" opacity="1.00" d=" M 542.00 127.10 C 570.97 124.61 599.94 122.08 628.91 119.48 C 632.82 164.06 636.92 208.62 640.50 253.22 C 629.89 254.21 619.26 255.01 608.65 256.04 L 608.29 256.08 C 608.54 217.39 608.32 178.69 608.41 140.00 C 586.25 140.06 564.09 139.88 541.94 140.09 C 542.08 135.76 541.98 131.43 542.00 127.10 Z" />
<path fill="#d3e273" opacity="1.00" d=" M 147.82 274.29 C 199.21 274.15 250.61 274.28 302.00 274.23 C 335.37 274.35 368.75 274.00 402.12 274.42 C 389.07 275.01 376.08 276.43 363.06 277.51 C 297.06 283.28 231.06 289.05 165.06 294.83 C 159.94 295.16 154.80 294.96 149.68 294.98 C 149.09 288.08 148.53 281.18 147.82 274.29 Z" />
</g>
<g id="#4db848ff">
<path fill="#4db848" opacity="1.00" d=" M 541.94 140.09 C 564.09 139.88 586.25 140.06 608.41 140.00 C 608.32 178.69 608.54 217.39 608.29 256.08 C 546.32 261.84 484.28 266.96 422.29 272.51 C 417.86 272.84 413.40 273.05 409.08 274.13 C 406.78 274.54 404.43 274.44 402.12 274.42 C 368.75 274.00 335.37 274.35 302.00 274.23 C 250.61 274.28 199.21 274.15 147.82 274.29 C 144.29 236.96 141.20 199.57 137.94 162.20 C 212.33 155.92 286.69 149.19 361.07 142.80 C 366.12 142.37 371.12 141.45 376.19 141.16 C 431.41 140.80 486.65 141.09 541.88 141.01 L 541.94 140.09 M 368.22 160.32 C 359.28 161.82 350.73 165.92 344.27 172.32 C 335.23 180.92 330.54 193.59 330.97 205.99 C 331.01 218.90 337.49 231.53 347.79 239.27 C 366.01 253.30 394.49 252.19 410.98 235.93 C 421.89 225.60 426.13 209.40 423.10 194.85 C 421.15 184.65 415.23 175.32 406.92 169.11 C 396.03 160.86 381.57 158.07 368.22 160.32 M 190.35 181.90 C 188.99 189.61 189.33 198.86 195.40 204.60 C 202.06 210.58 211.50 211.06 219.30 214.78 C 222.43 216.18 224.86 219.48 223.92 223.03 C 223.03 227.89 217.49 229.81 213.11 229.47 C 206.28 229.14 200.45 225.17 195.36 220.95 C 192.51 226.87 189.38 232.65 186.36 238.48 C 198.09 247.12 214.03 250.76 228.03 245.95 C 235.83 243.34 242.99 237.31 244.85 229.03 C 246.93 220.66 247.63 210.47 241.43 203.60 C 235.92 196.88 226.96 195.30 219.14 192.74 C 216.06 191.64 212.23 189.70 211.97 186.01 C 211.69 181.72 216.12 178.94 219.95 178.73 C 225.48 178.23 230.49 181.11 234.67 184.41 C 237.48 178.68 240.42 173.01 243.18 167.26 C 232.81 161.88 220.60 158.75 209.01 161.50 C 199.44 163.82 191.98 172.25 190.35 181.90 M 261.00 162.52 C 261.01 190.26 260.99 218.00 261.01 245.74 C 268.11 245.68 275.22 245.85 282.33 245.63 C 282.16 236.51 282.30 227.38 282.25 218.25 C 287.48 218.20 292.71 218.35 297.94 218.21 C 304.94 217.93 312.28 215.45 316.83 209.88 C 322.40 202.96 323.39 193.48 322.40 184.93 C 321.47 176.85 316.62 169.29 309.41 165.44 C 305.03 163.03 299.94 162.50 295.02 162.50 C 283.68 162.53 272.34 162.50 261.00 162.52 M 442.09 162.50 C 438.72 190.24 435.22 217.97 431.91 245.73 C 439.01 245.74 446.10 245.73 453.20 245.74 C 454.52 234.91 455.80 224.08 457.15 213.26 C 463.65 224.08 470.18 234.86 476.66 245.69 C 484.97 245.79 493.29 245.70 501.60 245.74 C 494.83 235.01 488.08 224.27 481.22 213.59 C 488.73 210.97 495.62 205.42 497.63 197.42 C 499.50 189.37 499.44 180.24 495.11 172.96 C 490.46 165.55 481.24 162.99 472.99 162.59 C 462.70 162.38 452.39 162.59 442.09 162.50 M 508.75 162.52 C 508.74 168.68 508.74 174.84 508.75 181.00 C 514.59 181.00 520.42 180.99 526.26 181.00 C 526.27 202.58 526.27 224.16 526.26 245.74 C 533.59 245.73 540.92 245.73 548.25 245.73 C 548.25 224.16 548.26 202.58 548.25 181.01 C 554.25 180.99 560.25 181.01 566.25 181.00 C 566.25 174.84 566.25 168.68 566.25 162.52 C 547.08 162.51 527.92 162.51 508.75 162.52 Z" />
<path fill="#4db848" opacity="1.00" d=" M 372.49 179.65 C 380.63 177.98 389.57 180.61 395.21 186.79 C 401.36 193.01 403.42 202.73 400.58 210.96 C 397.81 219.56 389.85 226.12 380.91 227.31 C 372.59 228.58 363.77 225.07 358.54 218.48 C 353.55 212.37 351.68 203.70 354.14 196.14 C 356.74 187.91 364.05 181.40 372.49 179.65 Z" />
<path fill="#4db848" opacity="1.00" d=" M 282.25 180.26 C 287.50 180.51 293.75 179.01 297.98 183.03 C 301.49 187.03 301.49 193.95 298.00 197.95 C 293.64 201.59 287.49 200.54 282.25 200.76 C 282.25 193.93 282.26 187.09 282.25 180.26 Z" />
<path fill="#4db848" opacity="1.00" d=" M 458.65 199.29 C 459.57 193.00 460.34 186.69 461.35 180.41 C 465.84 180.55 470.96 180.23 474.66 183.26 C 478.41 186.46 477.50 192.85 473.81 195.74 C 469.61 199.26 463.85 199.41 458.65 199.29 Z" />
</g>
<g id="#297d2eff">
<path fill="#297d2e" opacity="1.00" d=" M 115.69 141.00 C 202.52 141.10 289.36 140.80 376.19 141.16 C 371.12 141.45 366.12 142.37 361.07 142.80 C 286.69 149.19 212.33 155.92 137.94 162.20 C 141.20 199.57 144.29 236.96 147.82 274.29 C 137.12 274.34 126.43 274.32 115.73 274.31 C 115.62 229.87 115.70 185.44 115.69 141.00 Z" />
<path fill="#297d2e" opacity="1.00" d=" M 422.29 272.51 C 484.28 266.96 546.32 261.84 608.29 256.08 L 608.65 256.04 C 608.47 262.13 608.62 268.22 608.55 274.32 C 550.04 274.32 491.53 274.32 433.02 274.32 C 425.04 274.21 417.05 274.54 409.08 274.13 C 413.40 273.05 417.86 272.84 422.29 272.51 Z" />
</g>
</svg>
