<?xml version="1.0" encoding="UTF-8" standalone="no"?>
<svg xmlns:dc="http://purl.org/dc/elements/1.1/" xmlns:cc="http://creativecommons.org/ns#" xmlns:rdf="http://www.w3.org/1999/02/22-rdf-syntax-ns#" xmlns:svg="http://www.w3.org/2000/svg" xmlns="http://www.w3.org/2000/svg" viewBox="0 0 1240 360" height="384" width="1322.6666" version="1.1" id="svg3122">
  <metadata id="metadata3128">
    <rdf:RDF>
      <cc:Work rdf:about="">
        <dc:format>image/svg+xml</dc:format>
        <dc:type rdf:resource="http://purl.org/dc/dcmitype/StillImage"/>
        <dc:title/>
      </cc:Work>
    </rdf:RDF>
  </metadata>
  <defs id="defs3126"/>
  <rect ry="0" y="0.52727538" x="2.5731485" height="359.99997" width="1240" id="rect841" style="opacity:1;vector-effect:none;fill:#000000;fill-opacity:1;stroke:#000000;stroke-width:4.31763983;stroke-linecap:butt;stroke-linejoin:miter;stroke-miterlimit:4;stroke-dasharray:none;stroke-dashoffset:0;stroke-opacity:1"/>
  <g transform="translate(493.93431,-34.014238)" id="g873">
    <path id="path816" d="M -126.6542,214.54149 V 53.041497 H 303.84578 734.34581 V 214.54149 376.0415 H 303.84578 -126.6542 Z" style="fill:#f7e703;stroke-width:0.78929752"/>
    <path style="fill:#040404;stroke-width:0.99999994" d="m 9.8629767,92.966614 c -7.86746,-0.0295 -15.1953,0.69409 -21.4654497,2.20458 -28.07156,6.762506 -47.47406,25.746576 -54.8163,53.633426 -2.79754,10.62551 -3.03812,30.96657 -0.4779,40.42053 4.19534,15.49182 12.60544,26.0459 26.19324,32.87476 4.34698,2.18467 17.19556,6.9587 28.55346,10.60729 33.41932,10.73559 39.81104,14.92292 40.65858,26.64002 1.44847,20.02499 -21.9089203,29.57079 -49.27551,20.13789 -9.50849,-3.2774 -14.7763,-6.1719 -24.17542,-13.2861 -3.63925,-2.75452 -7.1838,-4.79061 -7.8772,-4.52452 -1.47746,0.56696 -24.4812,43.65292 -24.4812,45.85332 0,0.8209 2.58701,3.0787 5.74951,5.017 18.67768,11.4476 39.37789,18.5147 60.75074,20.7404 15.9937197,1.6655 37.49398,-0.8091 51.52771,-5.9308 33.96925,-12.3972 49.97131,-35.9542 49.97131,-73.56444 0,-14.90821 -1.07475,-20.6208 -5.74036,-30.48522 -7.92431,-16.75425 -23.61037,-26.98457 -56.75902,-37.01844 -26.1994303,-7.93039 -33.2813403,-12.65196 -34.2608803,-22.84607 -0.62957,-6.55201 2.37136,-12.29719 8.43201,-16.14075 12.1515803,-7.7063 30.0414903,-5.91164 47.2174103,4.73878 5.21188,3.23176 7.81011,4.31502 8.82019,3.67492 0.78757,-0.49909 6.20757,-10.29131 12.04285,-21.76026 8.31274,-16.33826 10.38507,-21.20703 9.57642,-22.48901 -1.38379,-2.19377 -16.23343,-8.51735 -28.71094,-12.225936 -13.72673,-4.07991 -28.34082,-6.2222 -41.4532503,-6.27137 z m 348.7500033,5.33935 c -29.30562,0 -31.91751,0.13808 -32.77221,1.748656 -2.84448,5.3601 -87.09797,226.51309 -86.60157,227.31629 0.36726,0.5942 12.36509,0.8624 31.27808,0.6995 l 30.68299,-0.2656 7.5,-18.5284 c 4.125,-10.1909 7.86253,-19.0781 8.30749,-19.7498 1.1868,-1.7914 81.02645,-1.763 82.4176,0.029 0.53362,0.6876 3.58652,8.4504 6.78406,17.2504 3.19753,8.8 6.42742,17.2375 7.17773,18.75 l 1.36414,2.7484 h 30.50533 c 24.85528,0 30.60225,-0.2518 31.0291,-1.3641 0.51422,-1.3399 -82.9195,-224.93714 -84.84742,-227.385806 -0.75051,-0.95322 -8.54298,-1.24879 -32.82532,-1.24879 z m -144.08935,0.18494 c -9.94652,-0.008 -21.84883,0.012 -35.93445,0.0586 l -77.38953,0.25635 v 24.999386 24.99939 l 23.49976,0.50171 23.49976,0.49988 0.24719,87.99865 c 0.13627,48.40004 0.46295,88.56994 0.72509,89.26574 0.37258,0.9889 6.86844,1.207 29.75281,0.9998 l 29.27491,-0.2655 0.49987,-89.00028 0.49988,-88.99841 23.49976,-0.26002 c 20.66509,-0.22809 23.65116,-0.46204 24.75036,-1.94091 1.87963,-2.52884 1.77911,-46.6165 -0.10986,-48.184196 -0.74256,-0.6163 -12.976,-0.90363 -42.81555,-0.93018 z m 285.67565,0.31494 -0.25819,113.499746 c -0.14156,62.42502 -0.0422,114.06282 0.21975,114.75032 0.36544,0.9597 7.09645,1.2488 28.97275,1.2488 27.1499,0 28.5449,-0.091 29.5313,-1.9336 0.6648,-1.2421 1.0345,-16.4499 1.0345,-42.5006 0,-22.31113 0.3382,-40.56516 0.7508,-40.56516 0.4126,0 12.0002,17.40453 25.7501,38.67556 13.7498,21.271 26.2391,40.3948 27.7552,42.4988 l 2.7556,3.825 h 35.9949 c 28.1317,0 35.9876,-0.2718 35.9876,-1.2488 0,-0.6875 -15.5437,-21.4554 -34.5337,-46.1499 -18.99,-24.69439 -34.3793,-45.34219 -34.1986,-45.88435 0.1808,-0.54216 3.6983,-2.1755 7.8167,-3.62915 9.9975,-3.52875 15.5165,-6.89462 22.0111,-13.42163 26.488,-26.6204 24.64,-74.96903 -3.891,-101.82495 -7.8815,-7.41881 -16.3787,-11.96784 -28.1982,-15.09339 -8.315,-2.198846 -9.6864,-2.246696 -63.0011,-2.246696 z m 71.07971,46.036376 c 7.4696,0.0252 12.7618,0.59392 16.7469,1.79993 14.2412,4.30982 22.1244,20.75866 17.1405,35.76416 -2.2658,6.82121 -9.1899,13.89768 -16.0016,16.35498 -3.2983,1.18983 -9.0553,1.95826 -17.1515,2.28698 l -12.1875,0.49439 -0.3131,-25.86915 c -0.1723,-14.22772 -0.053,-26.99352 0.2655,-28.36852 0.5746,-2.4816 0.6599,-2.49937 11.5008,-2.46277 z m -212.51036,27.68555 c 0.0808,0.003 0.16059,0.0217 0.24352,0.0494 1.81161,0.60387 23.54701,68.00013 22.40662,69.47754 -0.72102,0.9341 -6.62752,1.2506 -23.37341,1.2506 -19.26757,0 -22.49113,-0.21594 -22.99988,-1.54174 -0.32544,-0.84808 3.80364,-14.46143 9.17542,-30.25086 12.00878,-35.29781 13.33531,-39.0217 14.54773,-38.98497 z" id="path814-9"/>
  </g>
  <path id="path814" d="m 211.28828,51.336396 c 22.16843,0.2581 44.61907,4.97628 62.89857,13.99659 7.47903,3.6906 13.33376,7.87835 13.42346,9.60205 0.0203,0.3903 -2.09947,12.12298 -4.7113,26.072384 -3.02093,16.13441 -5.22171,25.54369 -6.04615,25.85999 -0.71279,0.2735 -4.33014,-1.33016 -8.03833,-3.56506 -29.92522,-18.0356 -66.91975,-19.79062 -91.74133,-4.35241 -18.91303,11.7633 -29.50012,32.39614 -29.50012,57.4933 0,16.83769 5.86269,31.56524 16.99951,42.70204 10.75081,10.7508 24.28633,16.3633 42.46033,17.6074 13.45516,0.921 29.11018,-2.2448 48.27575,-9.7651 2.11334,-0.8292 3.57692,-0.9311 4.21692,-0.2911 1.38015,1.3802 -7.68184,53.3801 -9.70275,55.6769 -2.11468,2.4033 -10.40811,5.3426 -21.96167,7.782 -11.05924,2.335 -36.81809,3.4424 -46.85669,2.0142 -46.56418,-6.6243 -79.73373,-33.3799 -92.816173,-74.8663 -4.43436,-14.0621 -5.92152,-26.52988 -5.36316,-44.99826 0.43494,-14.3864 0.92102,-18.22875 3.55408,-28.15978 5.41688,-20.4305 14.740153,-38.90748 26.433103,-52.380984 9.62632,-11.09209 27.95619,-23.97623 43.51319,-30.58593 16.0616,-6.82416 35.4024,-10.06965 54.96276,-9.84193 z" style="fill:#ffffff;stroke-width:0.99999994"/>
</svg>