<?xml version="1.0" encoding="utf-8"?>
<!-- Generator: Adobe Illustrator 22.0.1, SVG Export Plug-In . SVG Version: 6.00 Build 0)  -->
<svg version="1.1" xmlns="http://www.w3.org/2000/svg" xmlns:xlink="http://www.w3.org/1999/xlink" x="0px" y="0px"
	 viewBox="0 0 244.5 211.8" style="enable-background:new 0 0 244.5 211.8;" xml:space="preserve">
<style type="text/css">
	.st0{display:none;}
	.st1{display:inline;fill:#FFFFFF;}
	.st2{fill:#EB0032;}
	.st3{fill:#232323;}
</style>
<g id="bg" class="st0">
	<rect x="-920.5" y="-399.9" class="st1" width="1920" height="1080"/>
</g>
<g id="france_x5F_2">
	<g>
		<g>
			<g>
				<g>
					<circle class="st2" cx="39.5" cy="139.5" r="39.5"/>
				</g>
			</g>
		</g>
		<path class="st3" d="M172,35.9c16,0,27.5,13.7,27.5,28.4c0,10.5-4.5,22.1-20.9,40.3l-74.3,77.9v29.4h140.2V176H165l48.1-51.7
			c14.2-16.1,26.7-35,26.7-60.1C239.8,26.3,208.9,0,172,0c-33.7,0-66.7,23.9-65.3,68h38.1c0-4.2,0.2-7.9,1-11.2
			C149.6,41.6,161.6,35.9,172,35.9z"/>
	</g>
</g>
</svg>
