<?xml version="1.0" encoding="utf-8"?>
<!-- Generator: Adobe Illustrator 16.0.0, SVG Export Plug-In . SVG Version: 6.00 Build 0)  -->
<!DOCTYPE svg PUBLIC "-//W3C//DTD SVG 1.1//EN" "http://www.w3.org/Graphics/SVG/1.1/DTD/svg11.dtd">
<svg version="1.1" id="Calque_1" xmlns="http://www.w3.org/2000/svg" xmlns:xlink="http://www.w3.org/1999/xlink" x="0px" y="0px"
	 width="510.251px" height="77.781px" viewBox="0 0 510.251 77.781" enable-background="new 0 0 510.251 77.781"
	 xml:space="preserve">
<circle fill="#FFCC00" cx="501.292" cy="34.522" r="8.959"/>
<circle fill="#FFCC00" cx="501.292" cy="68.724" r="8.959"/>
<g>
	<path fill="none" d="M119.466,51.748c0-2.067,0.025-4.134-0.017-6.199c-0.012-0.584-0.044-1.297-0.367-1.726
		c-4.586-6.081-14.497-8.341-20.629-2.647c-5.722,5.314-6.017,14.872-0.647,20.35c5.231,5.335,14.47,5.104,20.034-0.468
		c1.134-1.136,1.794-2.339,1.658-4.025C119.357,55.282,119.466,53.51,119.466,51.748z"/>
	<path fill="none" d="M276.451,36.42c-5.54-0.041-10.606,4.042-10.763,8.722c6.764,0,13.526,0,20.29,0
		C285.879,40.478,281.426,36.457,276.451,36.42z"/>
	<path fill="none" d="M455.017,37.919c-7.624-0.008-13.385,5.94-13.375,13.81c0.01,7.812,5.694,13.638,13.306,13.637
		c7.598,0,13.272-5.835,13.289-13.662C468.252,43.926,462.5,37.927,455.017,37.919z"/>
	<path fill="#414141" d="M317.083,0.795c-0.895-0.32-1.826-0.533-2.741-0.795c-0.244,0-0.486,0-0.73,0
		c-0.454,0.13-0.901,0.304-1.364,0.383c-4.315,0.735-7.263,4.386-7.069,8.778c0.197,4.493,3.399,7.679,8.203,8.165
		c4.147,0.418,8.136-2.562,9.079-6.782C323.388,6.388,321.112,2.237,317.083,0.795z"/>
	<path fill="#414141" d="M119.96,30.58c-3.743-2.704-7.424-4.296-11.534-4.811c-4.182-0.524-8.229-0.045-12.148,1.514
		c-3.868,1.538-7.087,3.965-9.707,7.175c-7.736,9.478-7.993,23.753-0.637,33.511c3.42,4.537,7.932,7.494,13.388,8.898
		c7.311,1.881,14.181,0.896,20.476-4.009c0.087,1.445,0.154,2.554,0.223,3.688c4.265,0,8.364,0,12.547,0c0-16.663,0-33.199,0-49.789
		c-4.252,0-8.355,0-12.607,0C119.96,27.929,119.96,29.002,119.96,30.58z M117.839,61.058c-5.563,5.571-14.802,5.803-20.034,0.468
		c-5.37-5.478-5.075-15.036,0.647-20.35c6.132-5.694,16.043-3.434,20.629,2.647c0.323,0.428,0.355,1.142,0.367,1.726
		c0.042,2.065,0.017,4.132,0.017,6.199c0,1.762-0.109,3.534,0.032,5.285C119.633,58.719,118.973,59.922,117.839,61.058z"/>
	<path fill="#414141" d="M454.997,25.563c-15.001-0.042-26.848,11.545-26.768,26.182c0.082,14.645,11.641,25.936,26.555,25.939
		c15.198,0.005,26.863-11.284,26.867-25.999C481.655,37.081,469.945,25.605,454.997,25.563z M454.948,65.366
		c-7.611,0.001-13.296-5.825-13.306-13.637c-0.01-7.87,5.751-13.818,13.375-13.81c7.482,0.008,13.235,6.007,13.22,13.785
		C468.22,59.531,462.545,65.366,454.948,65.366z"/>
	<path fill="#414141" d="M265.934,27.819c-8.61,4.085-12.865,11.43-13.87,20.641c-0.871,7.99,0.806,15.438,6.576,21.398
		c7.046,7.277,15.836,9.017,25.478,7.214c5.702-1.066,10.591-3.754,14.209-7.917c-2.571-2.596-5.063-5.112-7.556-7.628
		c-5.463,4.972-11.695,7.267-18.998,3.794c-4.154-1.975-6.989-6.578-6.617-10.295c11.401,0,22.813,0,34.466,0
		c0.102-1.423,0.303-2.629,0.246-3.823c-0.093-1.935-0.212-3.889-0.568-5.789C296.343,29.619,280.209,21.047,265.934,27.819z
		 M265.688,45.143c0.156-4.68,5.223-8.763,10.763-8.722c4.976,0.036,9.429,4.058,9.527,8.722
		C279.214,45.143,272.452,45.143,265.688,45.143z"/>
	<path fill="#414141" d="M378.019,35.702c-6.813-10.411-20.962-13.298-31.31-6.389c-0.512,0.341-1.033,0.667-1.833,1.183
		c0-1.499,0-2.575,0-3.742c-4.306,0-8.47,0-12.747,0c0,16.627,0,33.181,0,49.748c4.471,0,8.804,0,13.28,0c0-0.893,0-1.614,0-2.337
		c0-8.692,0.24-17.395-0.108-26.073c-0.158-3.938,1.557-6.143,4.573-7.849c1.309-0.741,2.712-1.398,4.153-1.808
		c6.67-1.896,12.426,1.141,13.801,7.263c0.315,1.408,0.421,2.889,0.428,4.338c0.04,8.084,0.02,16.169,0.02,24.253
		c0,0.711,0,1.423,0,2.378c4.31,0,8.257-0.018,12.204,0.012c0.99,0.007,1.229-0.459,1.219-1.345
		c-0.11-9.721-0.089-19.445-0.35-29.162C381.25,42.452,380.102,38.883,378.019,35.702z"/>
	<path fill="#414141" d="M193.479,46.224c-0.969-17.14-20.19-26.423-34.521-16.929c-0.526,0.349-1.068,0.675-1.79,1.129
		c-0.073-1.423-0.129-2.54-0.189-3.705c-4.241,0-8.299,0-12.542,0c0,16.71,0,33.251,0,49.833c4.45,0,8.736,0,13.252,0
		c0-0.831,0-1.544,0-2.256c0-8.812,0.245-17.633-0.113-26.43c-0.156-3.818,1.482-5.916,4.382-7.562
		c1.309-0.744,2.704-1.412,4.142-1.837c6.616-1.958,12.538,1.073,13.895,7.103c0.33,1.467,0.451,3.008,0.459,4.517
		c0.043,8.143,0.021,16.285,0.021,24.429c0,0.648,0,1.297,0,2.029c4.567,0,8.901,0,13.244,0c0.072-0.288,0.154-0.459,0.152-0.629
		C193.771,66.017,194.038,56.097,193.479,46.224z"/>
	<path fill="#414141" d="M26.396,21.726c0.51-4.704,3.466-7.439,8.203-7.551c1.622-0.039,3.245-0.006,5.131-0.006
		c0.616-3.397,1.282-7.067,1.965-10.83c-6.148-1.99-14.125-1.161-19.48,1.807c-8.518,4.719-9.473,12.839-9.474,21.533
		c-4.379,0-8.537,0-12.74,0c0,3.835,0,7.447,0,11.278c4.268,0,8.426,0,12.774,0c0,0.936,0,1.651,0,2.367c0,8.568,0,17.137,0,25.706
		c0,3.038-0.038,6.078,0.039,9.114c0.012,0.508,0.511,1.433,0.802,1.439c4.11,0.096,8.224,0.064,12.607,0.064
		c0-12.997,0-25.776,0-38.798c5.333,0,10.396,0,15.394,0c0-3.862,0-7.476,0-11.194c-3.72,0-7.3,0-10.881,0
		c-0.324,0-0.624,0-0.906-0.002v0.002h-3.656v-1.854C26.144,24.086,26.246,23.104,26.396,21.726z"/>
	<path fill="#414141" d="M217.995,62.062c-5.447-4.736-6.036-13.864-1.235-19.425c5.72-6.626,13.678-6.248,22.064,1.144
		c3.07-2.701,6.155-5.415,9.225-8.115c-5.295-8.222-18.418-12.183-29.221-8.932c-11.16,3.358-19.211,13.555-18.694,26.457
		c0.435,10.858,8.229,20.635,19.271,23.596c11.688,3.135,24.832-1.362,30.172-10.387c-3.367-2.521-6.74-5.047-10.11-7.569
		C232.735,67.607,222.998,66.413,217.995,62.062z"/>
	<path fill="#414141" d="M60.954,31.35c-0.082-1.742-0.148-3.153-0.215-4.585c-4.298,0-8.401,0-12.6,0c0,16.614,0,33.118,0,49.907
		c3.832,0,7.475-0.072,11.112,0.033c1.622,0.048,2.184-0.356,2.167-2.101c-0.091-9.238-0.058-18.479-0.018-27.718
		c0.004-0.866,0.118-1.913,0.6-2.566c2.929-3.974,6.785-6.375,11.864-6.387c1.497-0.003,2.995,0.166,4.624,0.263
		c0.503-4.085,0.997-8.084,1.506-12.214C72.798,24.838,66.468,26.116,60.954,31.35z"/>
	<path fill="#414141" d="M307.191,28.692c-0.005,15.309-0.004,30.617-0.004,45.926c0,0.304-0.108,0.676,0.027,0.896
		c0.265,0.427,0.661,1.09,1.014,1.097c4.001,0.078,8.003,0.05,12.142,0.05c0-16.816,0-33.356,0-49.878c-4.434,0-8.715,0-13.098,0
		C307.24,27.498,307.191,28.095,307.191,28.692z"/>
</g>
<g>
	<path fill="none" d="M396.655,26.679c0.256,0.01,0.462-0.008,0.645-0.042h-2.451C395.451,26.644,396.053,26.656,396.655,26.679z"/>
	<path fill="#414141" d="M411.699,26.655c0.006-3.721-0.436-7.263,2.217-9.971c3.127-3.193,7.157-2.691,11.209-2.19
		c0.679-3.77,1.34-7.449,2.029-11.282c-4.265-1.018-8.249-1.338-12.23-0.571c-7.709,1.484-13.604,5.321-15.649,13.345
		c-0.64,2.508-0.752,5.162-0.891,7.785v2.867h-1.084c-0.183,0.034-0.389,0.051-0.645,0.042c-0.602-0.023-1.204-0.035-1.807-0.042
		h-0.574v-0.001c-1.516-0.006-3.032,0.019-4.548,0.019c-1.433,0-2.866,0-4.337,0c0,3.883,0,7.498,0,11.264
		c3.706,0,7.285,0.077,10.859-0.035c0.365-0.011,0.668,0.006,0.924,0.054h1.127v1.622c0.005,0.11,0.014,0.213,0.013,0.337
		c-0.073,11.487-0.039,22.975-0.039,34.463c0,0.707,0,1.414,0,2.173c4.587,0,8.922,0,13.486,0c0-12.918,0-25.7,0-38.703
		c5.235,0,10.243,0,15.204,0c0-3.836,0-7.445,0-11.175c-2.649,0-5.134,0-7.619,0C416.822,26.655,414.3,26.655,411.699,26.655z"/>
	<path fill="#414141" d="M394.848,26.638c-0.191-0.002-0.383,0-0.574-0.001v0.001H394.848z"/>
</g>
</svg>
