<?xml version="1.0" encoding="utf-8"?>
<!-- Generator: Adobe Illustrator 19.2.1, SVG Export Plug-In . SVG Version: 6.00 Build 0)  -->
<svg version="1.1" id="Calque_2" xmlns="http://www.w3.org/2000/svg" xmlns:xlink="http://www.w3.org/1999/xlink" x="0px" y="0px"
	 width="69px" height="70px" viewBox="0 0 97.6 100" style="enable-background:new 0 0 97.6 100;" xml:space="preserve">
<style type="text/css">
	.st0{fill:#FFFFFF;}
	.st1{fill:#1D1D1D;}
	.st2{opacity:0.75;fill:#333333;}
	.st3{fill:#E5E5E5;}
	.st4{fill:#ED1C24;}
	.st5{fill:#EE3134;}
	.st6{fill:url(#SVGID_1_);}
	.st7{fill-rule:evenodd;clip-rule:evenodd;fill:#FFFFFF;}
	.st8{fill:none;stroke:#000000;stroke-width:1.8728;stroke-miterlimit:10;}
	.st9{fill:url(#SVGID_2_);}
	.st10{fill:#E22028;}
	.st11{fill:#E11F26;}
	.st12{opacity:0.7;}
</style>
<g>
	<g>
		<g>
			<circle class="st4" cx="87.8" cy="9.8" r="9.8"/>
			<path class="st4" d="M97.6,19.7l-22.9,7.9v9.4l6.4-2.3c0,0,0,24.8,0,26.1c0,7.6-8.6,5.2-11.2,3.2c-0.8-0.6-6.7-4.7-6.7-4.7
				C69,57.4,78,50,73.6,40c-5.6-10.2-15.4-6.9-15.4-6.9l-26.9,9.4v9.3l3.9-1.4v12.9L17.8,47.1L0,53.4l0,9.3l5.4-2v26.4L0.1,89v11
				l20.3-7.1V69.8l12.8,12v13.5l32-11.2v-7.7c4.1,4.6,13.1,5.3,18.9,3.6c7.2-2.1,13.5-6.7,13.5-16C97.6,60.6,97.6,19.7,97.6,19.7z
				 M57.3,51.9c-1.9,0.7-7.5,2.8-7.5,2.8v-8.9c0,0,3.9-1.4,5.8-2c1.9-0.6,3.6,1.2,3.7,3.1C59.4,48.4,59.7,50.8,57.3,51.9z"/>
		</g>
		<g>
			<polygon class="st0" points="35.5,68.5 35.5,92.1 42,89.9 42,66.2 35.5,68.5 			"/>
			<path class="st0" d="M56.9,75.8c3.1-3,6.2-5.9,6.2-10.2c0-5.7-4.6-6.3-9.4-4.6c-6.1,2.1-9.8,6.4-10,13.6l6.2-2.2
				c0-2.3,0.7-4.9,3.4-5.9c1.4-0.5,2.8-0.2,2.8,1.5c0,4.1-6.2,7.9-10.1,13.5c-1.9,2.7-2.3,4.9-2.3,7.7l19.1-6.7v-5.8l-10.8,3.8
				C53.4,79.1,55.2,77.5,56.9,75.8z"/>
		</g>
	</g>
</g>
</svg>
