<?xml version="1.0" encoding="utf-8"?>
<!-- Generator: Adobe Illustrator 22.0.1, SVG Export Plug-In . SVG Version: 6.00 Build 0)  -->
<svg version="1.1" id="Calque_1" xmlns="http://www.w3.org/2000/svg" xmlns:xlink="http://www.w3.org/1999/xlink" x="0px" y="0px"
	 viewBox="0 0 594 306.7" style="enable-background:new 0 0 594 306.7;" xml:space="preserve">
<style type="text/css">
	.st0{fill:#00527D;}
</style>
<g>
	<path class="st0" d="M124.8,75.7c-1.2,23-20,24.6-20,24.6H87.1l4.5-53.5h14.3C110.9,46.7,126,52.8,124.8,75.7 M184.4,61.2
		c0-56-41.7-56-46.2-56c-4.5,0-98.8-0.1-98.8-0.1L15.6,208.6h62.1l4.9-64c0,0,1.2-6,6.9-6c5.7,0,7,4.8,7,4.8l15.5,64.8h60.1
		l-22.1-78.5C150.1,129.7,184.4,117.2,184.4,61.2"/>
	<polygon class="st0" points="222.9,6.4 274.4,6.4 304.6,103.9 355.7,6.8 408.9,6.8 389.7,208.2 334.9,208.2 340.2,131.7 
		303.8,208.2 285.4,208.2 262.1,136.1 253.9,208.2 200,208.2 	"/>
	<path class="st0" d="M558.9,79.3h9.8l24.9-40.7c0,0,2-5.6-3.7-11.3C584.2,21.8,567.9,0,526.2,0c-41.7,0-87.3,34.6-96.5,95.8
		c-7.8,51.9,9.4,102.7,58.9,114.8c49.5,12.1,85-20.1,90.3-33.4c1.6-4.8,1.6-5.6,0-8.5c-1.6-2.8-16.8-31-16.8-31h-9.8
		c0,0-2.9,0-5.3,2.8c-2.5,2.8-11.9,12.1-16.8,14.1c-7.4,6.4-46.6,5.2-44.1-43.1c4.5-53.1,42.9-53.1,42.9-53.1S543,55.6,558.9,79.3"
		/>
	<path class="st0" d="M25.2,248.8H14l-8.5,52.3h11.3c17.3,0,31-13.8,31-30.8C47.8,256.8,38.6,248.8,25.2,248.8 M16.5,305.6H0
		l9.8-61.3h16.5c15.4,0,26.6,10,26.6,25.4C53,289.7,36.8,305.6,16.5,305.6"/>
	<path class="st0" d="M103.9,226.1l-12.2,13.1h-4.1L98,226.1H103.9z M107.8,244.3l-0.7,4.4H79.3l-3.5,22h26.3l-0.7,4.5H75.1
		l-4.2,25.9h28.5l-0.7,4.5H65.3l9.8-61.3H107.8z"/>
	<path class="st0" d="M169.7,256c-3.3-5.6-11-8.2-17.3-8.2c-17.8,0-29.8,15.8-29.8,32.4c0,12.7,7.9,21.7,21.1,21.7
		c7.6,0,14.9-2.9,20.3-8.1l2.7,3.2c-6.5,6.2-14.3,9.6-23.7,9.6c-15.6,0-25.6-10.4-25.6-25.6c0-20,14.7-37.7,35.7-37.7
		c8.5,0,15.1,2.9,20.1,9.2L169.7,256z"/>
	<path class="st0" d="M218,247.8c-17.8,0-30.1,15.7-30.1,32.4c0,12.7,8.3,21.7,21.4,21.7c17.8,0,30.1-15.7,30.1-32.4
		C239.4,256.8,231.1,247.8,218,247.8 M208.5,306.7c-15.4,0-25.8-10.5-25.8-25.6c0-20.2,14.9-37.7,36-37.7
		c15.3,0,25.8,10.5,25.8,25.6C244.6,289.2,229.6,306.7,208.5,306.7"/>
	<path class="st0" d="M309,244.3l-5.9,36.6c-2.3,14.5-8.3,25.8-25.4,25.8c-10.6,0-18.1-5.9-18.1-16.7c0-3,0.5-6,1-9.1l5.9-36.6h4.9
		l-5.7,35.3c-0.4,3-1,6.1-1,9.2c0,8.4,5.3,13.3,13.8,13.3c14.2,0,18.2-10.8,20.1-22.5l5.7-35.3H309z"/>
	<polygon class="st0" points="372.3,244.3 340.6,305.7 336.8,305.7 324.9,244.3 330.1,244.3 340.2,297.3 367.3,244.3 	"/>
	<polygon class="st0" points="421.2,244.3 420.5,248.8 392.7,248.8 389.1,270.8 415.4,270.8 414.7,275.2 388.3,275.2 384.2,301.1 
		412.7,301.1 412,305.6 378.7,305.6 388.5,244.3 	"/>
	<path class="st0" d="M453,248.8h-7.2l-3.9,23.9h7.1c9.8,0,17.8-3.6,17.8-14.5C466.8,250,459.6,248.8,453,248.8 M454.4,277
		l13.6,28.6h-6.2l-13.1-28.4h-7.5l-4.6,28.4h-4.8l9.8-61.3h13.9c8.8,0,16.3,3.9,16.3,13.4C471.9,268.5,464.5,275.5,454.4,277"/>
	<polygon class="st0" points="527.4,244.3 526.7,248.8 508.9,248.8 499.8,305.6 494.9,305.6 504.1,248.8 486.3,248.8 487.1,244.3 	
		"/>
	<polygon class="st0" points="576.7,244.3 576,248.8 548.2,248.8 544.7,270.8 570.9,270.8 570.2,275.2 543.8,275.2 539.7,301.1 
		568.2,301.1 567.5,305.6 534.2,305.6 544,244.3 	"/>
</g>
</svg>
