<?xml version="1.0" encoding="UTF-8" standalone="no"?>
<!-- Created with Inkscape (http://www.inkscape.org/) -->

<svg
   xmlns:dc="http://purl.org/dc/elements/1.1/"
   xmlns:cc="http://creativecommons.org/ns#"
   xmlns:rdf="http://www.w3.org/1999/02/22-rdf-syntax-ns#"
   xmlns:svg="http://www.w3.org/2000/svg"
   xmlns="http://www.w3.org/2000/svg"
   xmlns:sodipodi="http://sodipodi.sourceforge.net/DTD/sodipodi-0.dtd"
   xmlns:inkscape="http://www.inkscape.org/namespaces/inkscape"
   width="500"
   height="256"
   id="svg2"
   sodipodi:version="0.32"
   inkscape:version="0.91 r13725"
   version="1.0"
   inkscape:output_extension="org.inkscape.output.svg.inkscape"
   sodipodi:docname="Canal+.svg">
  <metadata
     id="metadata12">
    <rdf:RDF>
      <cc:Work
         rdf:about="">
        <dc:format>image/svg+xml</dc:format>
        <dc:type
           rdf:resource="http://purl.org/dc/dcmitype/StillImage" />
        <dc:title></dc:title>
      </cc:Work>
    </rdf:RDF>
  </metadata>
  <defs
     id="defs10" />
  <sodipodi:namedview
     pagecolor="#ffffff"
     bordercolor="#666666"
     borderopacity="1"
     objecttolerance="10"
     gridtolerance="10"
     guidetolerance="10"
     inkscape:pageopacity="0"
     inkscape:pageshadow="2"
     inkscape:window-width="1280"
     inkscape:window-height="691"
     id="namedview8"
     showgrid="false"
     inkscape:zoom="0.75645786"
     inkscape:cx="455.64727"
     inkscape:cy="24.559252"
     inkscape:window-x="0"
     inkscape:window-y="1"
     inkscape:window-maximized="1"
     inkscape:current-layer="layer1" />
  <g
     inkscape:label="Layer 1"
     inkscape:groupmode="layer"
     id="layer1"
     transform="translate(-332.74477,-279.91065)">
    <path
       id="path68644"
       d="m 942.37991,142.45821 2.382,0 -2.382,0"
       style="fill:#000000;fill-rule:nonzero;stroke:none"
       inkscape:connector-curvature="0" />
    <path
       id="path68650"
       d="m 944.76191,141.56521 0,0.248 0,-0.248"
       style="fill:#de6a06;fill-rule:nonzero;stroke:none"
       inkscape:connector-curvature="0" />
    <g
       id="g4387"
       transform="matrix(1.198838,0,0,1.1986115,-231.35435,-477.37824)">
      <g
         id="g4383">
        <rect
           style="opacity:1;fill:#000000;fill-opacity:1;fill-rule:nonzero;stroke:none;stroke-width:0.60000002;stroke-linecap:round;stroke-linejoin:round;stroke-miterlimit:4;stroke-dasharray:none;stroke-dashoffset:0;stroke-opacity:1"
           id="rect4361"
           width="417.07053"
           height="213.58046"
           x="470.53824"
           y="631.80511" />
        <rect
           y="642.42078"
           x="684.46057"
           height="192.19556"
           width="192.29883"
           id="rect4363"
           style="opacity:1;fill:#ffffff;fill-opacity:1;fill-rule:nonzero;stroke:none;stroke-width:0.60000002;stroke-linecap:round;stroke-linejoin:round;stroke-miterlimit:4;stroke-dasharray:none;stroke-dashoffset:0;stroke-opacity:1" />
      </g>
      <g
         id="g4373">
        <path
           style="fill:#ffffff;fill-rule:nonzero;stroke:none"
           d="m 618.5191,797.40413 c -0.19412,1.43964 -0.91513,2.54709 -0.91513,2.54709 0,0 -0.77646,0.74751 -1.94121,1.10743 -17.52629,7.05993 -36.91062,4.67893 -36.91062,4.67893 -31.4475,-3.37768 -51.35872,-22.64711 -57.79241,-47.45376 -9.45646,-37.18225 9.29003,-63.567 13.86574,-69.24262 11.00939,-13.20621 28.25839,-22.61944 45.23007,-24.83432 21.5751,-3.01777 37.54843,2.02107 44.14852,4.23596 0,0 7.23792,2.27024 12.64557,5.95247 2.74543,1.82728 3.13366,2.54713 3.13366,2.54713 0,0 0.16637,0.3876 -0.58235,3.21157 l -5.1026,26.6339 c -0.19414,1.10745 -0.85967,1.66116 -0.85967,1.66116 0,0 -0.36053,0.1938 -2.93955,-1.46736 -16.30613,-11.54505 -35.38539,-10.16074 -35.38539,-10.16074 -14.50357,0.91363 -31.47525,8.52728 -36.52236,27.74135 -4.49252,17.05455 0.1941,31.34051 10.34383,39.84011 6.90514,6.06322 17.63724,9.08099 28.92397,8.55495 12.28503,-0.91362 22.10198,-5.78635 21.38096,-5.42643 0,0 0.52691,-0.1938 1.10927,-0.35992 2.55129,-1.27356 3.10592,-1.10744 3.10592,-1.10744 0,0 0.55464,0.55371 0.16637,2.21487 l -5.1026,29.12567"
           id="path68520"
           inkscape:connector-curvature="0"
           sodipodi:nodetypes="ccccccccccccccccccccccc" />
        <g
           id="g4365">
          <g
             style="fill:#000000"
             id="g4353">
            <path
               style="fill:#000000;fill-rule:evenodd;stroke:none;stroke-width:1px;stroke-linecap:butt;stroke-linejoin:miter;stroke-opacity:1"
               d="m 447.60156,318.02734 c -2.83793,-0.16308 -5.52276,-0.21366 -8.06445,-0.16211 -38.12534,0.7733 -43.85699,24.4913 -45.19336,35.07618 -1.73955,13.77825 12.0416,44.63781 52.72852,43.37304 l 1.66015,0 c 40.68692,1.26477 54.46611,-29.59479 52.72656,-43.37304 -1.33636,-10.58488 -7.06801,-34.30288 -45.19336,-35.07618 -2.54168,-0.0516 -5.22651,-9.7e-4 -8.06445,0.16211 z"
               transform="translate(332.74477,410.91065)"
               id="path4346"
               inkscape:connector-curvature="0"
               sodipodi:nodetypes="cssccsscc" />
            <path
               sodipodi:nodetypes="cssccsscc"
               inkscape:connector-curvature="0"
               id="path4351"
               d="m 780.914,735.11775 c 2.53537,0.15144 4.93397,0.1984 7.20468,0.15053 34.0607,-0.71806 39.18128,-22.74158 40.37518,-32.57025 1.55409,-12.79389 -10.75781,-41.44876 -47.10699,-40.27436 l -1.48316,0 c -36.34919,-1.1744 -48.65934,27.48047 -47.10526,40.27436 1.19389,9.82867 6.31448,31.85219 40.37519,32.57025 2.27071,0.048 4.6693,9.1e-4 7.20468,-0.15053 z"
               style="fill:#000000;fill-rule:evenodd;stroke:none;stroke-width:1px;stroke-linecap:butt;stroke-linejoin:miter;stroke-opacity:1" />
          </g>
          <g
             style="fill:#ffffff"
             id="g4357">
            <ellipse
               style="opacity:1;fill:#ffffff;fill-opacity:1;fill-rule:nonzero;stroke:none;stroke-width:3;stroke-linecap:round;stroke-linejoin:round;stroke-miterlimit:4;stroke-dasharray:none;stroke-dashoffset:0;stroke-opacity:1"
               id="path4333"
               cx="780.9624"
               cy="702.24902"
               rx="15.189856"
               ry="14.60563" />
            <ellipse
               ry="15.77408"
               rx="16.475151"
               cy="762.07367"
               cx="780.9624"
               id="ellipse4335"
               style="opacity:1;fill:#ffffff;fill-opacity:1;fill-rule:nonzero;stroke:none;stroke-width:3;stroke-linecap:round;stroke-linejoin:round;stroke-miterlimit:4;stroke-dasharray:none;stroke-dashoffset:0;stroke-opacity:1" />
          </g>
        </g>
      </g>
    </g>
  </g>
</svg>
