<?xml version="1.0" encoding="UTF-8" standalone="no"?>
<!-- Generator: Adobe Illustrator 16.0.0, SVG Export Plug-In . SVG Version: 6.00 Build 0)  -->

<svg
   xmlns:dc="http://purl.org/dc/elements/1.1/"
   xmlns:cc="http://creativecommons.org/ns#"
   xmlns:rdf="http://www.w3.org/1999/02/22-rdf-syntax-ns#"
   xmlns:svg="http://www.w3.org/2000/svg"
   xmlns="http://www.w3.org/2000/svg"
   xmlns:sodipodi="http://sodipodi.sourceforge.net/DTD/sodipodi-0.dtd"
   xmlns:inkscape="http://www.inkscape.org/namespaces/inkscape"
   version="1.2"
   id="Layer_1"
   x="0px"
   y="0px"
   width="600"
   height="600"
   viewBox="0 0 600 600"
   xml:space="preserve"
   inkscape:version="0.91 r13725"
   sodipodi:docname="Chérie 25 logo 2015.svg"><metadata
     id="metadata33"><rdf:RDF><cc:Work
         rdf:about=""><dc:format>image/svg+xml</dc:format><dc:type
           rdf:resource="http://purl.org/dc/dcmitype/StillImage" /><dc:title></dc:title></cc:Work></rdf:RDF></metadata><defs
     id="defs31" /><sodipodi:namedview
     pagecolor="#ffffff"
     bordercolor="#666666"
     borderopacity="1"
     objecttolerance="10"
     gridtolerance="10"
     guidetolerance="10"
     inkscape:pageopacity="0"
     inkscape:pageshadow="2"
     inkscape:window-width="1366"
     inkscape:window-height="705"
     id="namedview29"
     showgrid="false"
     inkscape:zoom="0.74271942"
     inkscape:cx="311.09549"
     inkscape:cy="252.9331"
     inkscape:window-x="-8"
     inkscape:window-y="-8"
     inkscape:window-maximized="1"
     inkscape:current-layer="Layer_1"
     fit-margin-top="0"
     fit-margin-left="0"
     fit-margin-right="0"
     fit-margin-bottom="0" /><g
     id="g3078"
     transform="translate(-0.5,200)"><path
       sodipodi:nodetypes="cccccc"
       style="fill:#e51a28;fill-opacity:1"
       inkscape:connector-curvature="0"
       id="path23"
       d="m 0.5,-199.50664 c 3.9471074,-0.81291 7.9438017,-0.36146 11.910744,-0.42296 196.036366,-0.045 392.062806,0.0615 588.089256,-0.06 l 0,599.9896 -600,0 z" /><path
       d="m 46.176362,217.06178 c 1.973554,-0.40646 54.033018,-22.24745 52.919597,-35.17661 -1.052516,-12.22198 -41.00847,-45.34352 -39.025,-45.37427 C 35.660894,91.503829 163.63969,-25.54568 188.66964,-35.799343 c 0,0 28.92724,38.0499571 37.48452,48.769762 10.84732,13.588563 33.11205,-57.369113 42.05951,-44.565462 9.70641,13.88971 40.43251,74.389684 40.43251,74.389684 -0.15108,9.037195 1.05135,-5.343036 4.52897,-1.489574 2.52271,2.795351 -5.34402,-7.366035 -9.00312,-13.415074 0,0 44.39003,-28.22560329 50.91418,-30.1592488 0,0 25.61562,37.2699548 28.3434,41.8278068 2.64328,4.416665 36.12616,-5.636795 37.66692,-4.437554 4.63425,3.607026 18.70605,19.525594 23.89263,23.49873 6.49161,4.972841 17.86379,-21.321503 26.54443,-20.855453 8.68064,0.466051 17.85407,24.398384 27.20427,24.775552 4.6751,0.188584 8.74309,1.842231 -0.41533,-10.798459 -9.15842,-12.64069 -25.98295,-33.72911 -25.98295,-33.72911 4.95656,-7.840361 8.88388,-19.5732294 18.24684,-23.1508511 l 29.65737,38.0011261 23.86378,-6.738022 c 21.92052,34.046455 33.7056,50.029967 55.15509,83.36024 L 600.5,400 183.20545,398.17295 Z"
       id="path4137"
       inkscape:connector-curvature="0"
       style="fill:#d81826;fill-opacity:1"
       sodipodi:nodetypes="cscssssssssssssssccccccc" /><g
       style="fill:#ffffff"
       transform="translate(-3.2320217,4.126133e-8)"
       id="g3055"><path
         sodipodi:nodetypes="sssscsssssssssscssssscssssssssscssssccsscsscsssscscssscssscscsssssscssssssscsssssssssssssssssssssssssssscssssssssssscsssccsssssscsssscsccs"
         inkscape:connector-curvature="0"
         id="path3067"
         d="M 63.244452,211.68775 C 145.62676,175.75024 242.52128,151.4943 339.48317,142.53612 c 37.89473,-3.50103 52.28943,-4.11177 97.60367,-4.14102 47.63973,-0.03 66.08772,0.82212 99.60872,4.60547 9.2964,1.04915 17.27163,1.67956 17.72279,1.40068 0.45114,-0.27873 0.82029,-1.80891 0.82029,-3.40011 0,-3.35459 1.73034,-2.83617 -24.14405,-7.23475 -43.5574,-7.40478 -75.56344,-9.79505 -130.4807,-9.74472 -44.22257,0.0394 -56.5223,0.62964 -97.09002,4.65056 -78.39771,7.77038 -179.54908,29.23281 -235.081294,49.87983 -14.088215,5.23792 -16.009245,6.92171 -19.115901,16.75611 -2.869887,9.08481 -4.261149,17.63465 -3.283977,20.18098 0.907336,2.36458 5.284678,1.39719 17.201754,-3.8014 z m 51.750278,-55.39393 c 19.63025,-6.01452 40.69444,-19.82878 62.39782,-40.92189 l 14.14395,-13.74627 0,5.30313 c 0,5.85224 2.1323,11.99422 4.89103,14.08893 2.43155,1.84628 7.06319,1.76044 10.36163,-0.19171 1.4999,-0.88767 6.98104,-7.26353 12.18028,-14.16846 11.892,-15.793427 17.7158,-22.409749 28.61209,-32.505698 l 3.8809,-3.595922 -2.14064,3.595922 c -11.09097,18.63108 -14.01859,26.367008 -13.37462,35.341378 0.37629,5.24495 0.87598,6.4546 3.7135,8.98994 5.68279,5.07738 10.50606,3.95871 34.35871,-7.96917 6.09296,-3.04702 11.28648,-5.53989 11.54105,-5.53989 0.25467,0 1.61071,2.26485 3.01341,5.03309 10.43136,20.5852 35.37208,16.79182 63.09944,-9.59714 6.8101,-6.48142 20.56573,-22.991892 24.59194,-29.516927 2.04595,-3.315835 3.46483,-4.153832 11.72294,-6.923459 5.16748,-1.73306 9.62205,-2.924279 9.89918,-2.64716 0.27722,0.277125 -0.97696,2.565862 -2.78686,5.086087 -4.55723,6.345981 -9.19061,16.578164 -10.64358,23.505188 -2.66846,12.722101 5.2582,25.334411 15.9222,25.334411 4.72044,0 13.41805,-5.53716 22.82655,-14.53171 l 9.51019,-9.091684 0.63879,3.849266 c 0.35152,2.11711 1.80962,6.348828 3.24016,9.403858 7.80111,16.6585 21.19581,16.60061 45.61052,-0.19707 3.19709,-2.19975 4.7206,-2.75937 5.02512,-1.84592 0.95562,2.86675 7.08684,8.72924 10.97831,10.49716 16.47141,7.48276 40.99206,-5.84646 64.03757,-34.810367 5.03322,-6.325889 5.08931,-6.475905 3.91221,-10.462735 -0.65694,-2.22466 -1.4992,-4.349623 -1.87172,-4.72215 -0.37249,-0.372516 -4.29446,2.975002 -8.71548,7.438935 -13.9116,14.046679 -27.54723,21.798719 -38.42453,21.845009 -4.87563,0.02074 -6.09928,-0.375764 -8.21926,-2.663425 l -2.49072,-2.687825 3.00177,-2.192367 c 27.4673,-20.060789 42.84597,-36.231612 45.23898,-47.569144 1.05771,-5.011186 -1.06929,-11.377564 -4.35677,-13.04124 -16.56991,-8.385136 -46.96177,7.618857 -60.58722,31.904454 -4.53759,8.087578 -7.4408,17.810648 -7.4408,24.918666 l 0,5.894202 -8.24616,3.869662 c -12.41422,5.825728 -19.49388,5.17747 -19.49388,-1.785025 0,-1.979293 4.54617,-11.95 12.40121,-27.198418 6.82077,-13.240476 12.15209,-24.723009 11.84748,-25.516764 -0.42684,-1.112276 -3.02274,-1.443179 -11.32162,-1.443179 l -10.76767,0 -2.47414,3.339069 c -1.3608,1.83649 -5.62511,10.165028 -9.47632,18.507854 -7.42437,16.083704 -11.0972,20.881771 -21.03606,27.48081 -7.02946,4.667246 -10.83134,5.666005 -13.90409,3.652617 -5.88228,-3.854256 -1.53192,-15.603846 10.67698,-28.836282 7.35826,-7.975031 8.36899,-9.766863 8.36899,-14.834821 0,-3.557509 -0.7905,-6.044159 -3.05956,-9.621807 -2.91896,-4.602787 -3.2763,-4.824474 -7.77631,-4.824474 -3.81668,0 -18.22521,3.029376 -27.43498,5.768223 -1.42315,0.42323 -1.79803,-0.08908 -1.79803,-2.457531 0,-3.817547 -3.2063,-6.847984 -6.37978,-6.029761 -3.13847,0.809195 -10.77347,7.191992 -15.49661,12.954924 -5.35924,6.539178 -8.1862,12.941009 -8.72307,19.75452 -0.42326,5.370647 -0.22667,6.063311 2.41701,8.513381 l 2.87783,2.667058 -6.61152,6.731 c -17.47539,17.791129 -34.79365,26.266851 -43.9723,21.520329 -4.16834,-2.155533 -6.23235,-6.783426 -3.69776,-8.29142 14.94776,-8.893788 33.3008,-22.898344 38.7705,-29.584412 13.56502,-16.581769 10.86955,-31.546311 -5.68235,-31.546311 -5.518,0 -15.05478,2.425404 -21.82444,5.550434 -17.23575,7.956373 -31.73733,27.079441 -35.93082,47.381233 -0.92464,4.476742 -1.77838,8.236608 -1.89695,8.35527 -1.1974,1.197466 -14.07029,6.520512 -15.77023,6.52113 -8.3805,0.003 -7.47507,-3.150973 7.79882,-27.168253 4.33224,-6.812364 8.42344,-13.655714 9.09133,-15.207424 2.4413,-5.671055 -1.2134,-9.572847 -11.35938,-12.127652 -4.26228,-1.073268 -5.24229,-0.94423 -10.2536,1.350005 -6.70859,3.071294 -16.08424,10.764573 -30.80674,25.278582 -6.07451,5.988558 -11.04467,10.543729 -11.04467,10.12263 0,-0.421102 4.35529,-9.197558 9.67802,-19.503205 42.9723,-83.197791 44.83074,-87.161702 43.13161,-91.993496 -1.6248,-4.61998 -13.35148,-5.679263 -20.71545,-1.871236 -4.6917,2.426161 -7.81046,7.949883 -19.85443,35.164301 -22.37936,50.56838 -34.10299,72.276682 -45.63036,84.492613 -18.3841,19.482063 -51.29682,41.601003 -68.43506,45.991573 -13.436,3.44211 -23.397307,-1.78497 -27.088517,-14.21466 -4.598838,-15.48598 2.140045,-41.902147 16.445077,-64.463862 23.63273,-37.273465 55.81143,-68.73462 73.13544,-71.504864 9.96687,-1.593757 7.61526,7.443884 -8.07442,31.031594 -8.29552,12.471258 -24.49611,29.415533 -38.69891,40.475341 -9.1974,7.162047 -14.57884,14.024648 -14.57884,18.591431 0,10.322585 10.42122,14.229197 21.87941,8.201904 30.67704,-16.137093 67.38363,-67.16581 67.48979,-93.822796 0.008,-2.09783 -0.9083,-6.282635 -2.03719,-9.299562 C 196.49816,-50.630859 157.5692,-36.212549 108.69703,13.694879 89.829217,32.962377 77.954633,49.370855 67.175769,71.069636 48.518875,108.62771 52.402263,142.27389 76.777885,154.26379 c 3.501964,1.72257 8.447715,3.56821 10.990547,4.10146 6.686186,1.40221 18.929338,0.47067 27.226298,-2.07143 z M 309.25336,72.901263 c 2.57561,-7.299608 6.18702,-12.511725 13.24343,-19.112621 9.79447,-9.162256 15.97639,-10.031422 11.83666,-1.664197 -3.20463,6.477117 -22.549,25.10963 -26.06895,25.10963 -0.29683,0 0.14809,-1.949766 0.98886,-4.332812 z m 199.1695,-9.453285 c 3.01342,-8.006037 7.21509,-14.402762 12.51946,-19.060089 3.6163,-3.17511 9.30066,-6.195287 11.66048,-6.195287 2.26392,0 0.88673,4.954592 -2.72684,9.809363 -3.57495,4.802891 -20.69761,21.119599 -22.95871,21.877945 -0.57611,0.193257 0.1017,-2.701111 1.50561,-6.431932 z M 322.01724,24.352783 c 10.99244,-3.826179 24.58692,-7.006091 35.17248,-8.227283 3.24032,-0.373812 6.09648,-1.011495 6.34713,-1.417085 0.86939,-1.406501 -3.00474,-16.5241814 -4.65807,-18.1775674 -1.53088,-1.530794 -2.21912,-1.441994 -8.73078,1.126453 -3.88787,1.5335378 -15.50649,6.8550934 -25.81906,11.8256812 -17.77487,8.5673592 -18.74941,9.1883362 -18.73621,11.9385282 0.008,1.595609 0.30365,3.982871 0.6577,5.305023 0.76297,2.849868 0.75683,2.850788 15.76681,-2.37375 z m 167.17692,-4.56118 c 4.32063,-3.129913 7.94531,-9.380218 8.99075,-15.5034273 0.44723,-2.6195313 0.05,-4.5025716 -1.45956,-6.9349961 -1.81794,-2.927355 -2.61386,-3.336987 -6.45511,-3.32217 -9.00315,0.03475 -18.16978,8.3222502 -19.02272,17.1983904 -0.41141,4.281441 -0.0941,5.421915 2.29305,8.259707 3.7861,4.499657 9.70171,4.613977 15.65359,0.302496 z"
         style="fill:#ffffff" /></g><path
       d="m 528.54675,168.08989 c -11.96917,2.32381 -24.14396,3.12943 -36.20572,4.70846 -2.81511,5.68052 -4.53089,11.84603 -7.47953,17.46389 -2.19867,5.09186 -5.82531,9.35663 -8.04462,14.42679 0.60625,0.10378 1.81853,0.3103 2.42476,0.41307 -0.61654,0.0613 -1.83912,0.17565 -2.45555,0.23737 2.28083,6.20765 6.80142,11.75244 12.68847,14.79875 5.52744,-3.75816 11.21928,-7.2597 17.25014,-10.17137 7.1405,-2.63427 16.54128,-7.21959 23.22964,-1.22974 3.24665,4.90481 2.07547,11.22643 -0.49307,16.15188 -4.09938,8.09694 -12.15423,13.45691 -20.55853,16.2145 -8.09587,1.43436 -16.94181,1.68285 -24.59613,-1.78659 -6.99654,-2.81925 -12.34942,-8.7063 -16.25353,-15.02698 -0.82189,-0.10378 -1.64382,-0.21681 -2.45548,-0.32058 -3.00001,4.86391 -4.82881,10.26589 -6.32881,15.74914 -18.30843,-0.77453 -36.57571,1.4055 -54.4423,5.36002 5.14728,-2.28284 9.67816,-5.67951 14.73299,-8.1484 14.14746,-8.35476 28.89082,-16.45189 40.23327,-28.60711 3.98626,-4.08908 6.98641,-9.1295 8.30157,-14.72682 0.46226,-4.62638 -0.66802,-9.40898 -3.42137,-13.16715 -3.32879,-4.93673 -8.83568,-7.65326 -14.22963,-9.68749 -6.93505,-2.25113 -14.37339,-1.69324 -21.52424,-1.19797 -11.39382,2.07539 -23.50689,6.57843 -30.42144,16.43028 -2.45559,3.13976 -2.53765,7.3224 -2.15753,11.11246 2.23977,5.10101 5.73299,12.18602 12.42133,10.88529 4.74661,-9.98626 11.74326,-19.57091 22.10982,-24.11528 5.25004,-2.89105 12.49324,-3.13971 16.78784,1.48771 1.38697,7.59059 -5.13706,12.74401 -10.07888,17.21525 -7.47951,6.71305 -16.30492,11.68055 -24.12354,17.97033 -10.01729,7.74573 -20.53789,15.12974 -28.61329,25.0339 -3.6678,5.7729 -1.66439,13.04389 1.37677,18.62068 1.59244,2.47923 4.40754,4.76094 7.53085,4.10037 7.42818,-1.96232 14.39402,-5.31882 21.72965,-7.56997 12.91451,-4.67871 26.39416,-7.56993 39.9559,-9.61443 2.94864,-0.0707 6.49322,-1.29146 9.03088,0.75307 4.5001,3.86305 10.22272,5.82436 15.89402,7.18777 21.87346,4.57605 46.62371,-4.49183 58.90124,-23.60886 5.17811,-7.9829 7.10966,-18.40388 4.04797,-27.52318 -2.70208,-8.2921 -11.7638,-12.56811 -19.9625,-12.58885 -8.38367,0.0716 -16.46934,2.75763 -24.38038,5.26651 2.60961,-5.10199 5.32197,-10.16314 7.83921,-15.31547 12.76031,-4.38912 26.48644,-5.21628 39.78112,-3.50147 2.22945,-4.59559 5.15759,-10.23499 2.96921,-15.35655 -0.61647,-0.24763 -1.8493,-0.7336 -2.46581,-0.98114 -6.2877,-0.027 -12.41103,1.48032 -18.54477,2.65791 z"
       id="path3076"
       inkscape:connector-curvature="0"
       style="fill:#ffffff"
       sodipodi:nodetypes="ccccccccccccccccccccccccccccccccccccccccccccc" /></g></svg>