<?xml version="1.0" encoding="utf-8"?>
<!-- Generator: Adobe Illustrator 22.0.1, SVG Export Plug-In . SVG Version: 6.00 Build 0)  -->
<svg version="1.1" id="france_x5F_5" xmlns="http://www.w3.org/2000/svg" xmlns:xlink="http://www.w3.org/1999/xlink" x="0px"
	 y="0px" viewBox="0 0 248 211.8" style="enable-background:new 0 0 248 211.8;" xml:space="preserve">
<style type="text/css">
	.st0{fill:#00D282;}
	.st1{fill:#232323;}
</style>
<g>
	<g>
		<g>
			<g>
				<circle class="st0" cx="39.5" cy="136.5" r="39.5"/>
			</g>
		</g>
	</g>
	<g>
		<path class="st1" d="M220.9,82.5c-6.3-5-21.1-16.6-48.6-16.3c-8.9,0.1-15.4,1.4-19.4,2.4l3.3-32.8h77.6V0H123.4L110,110.7
			l28.8,2.9c10.8-8.9,22.4-11.4,30.7-11.4c9.5-0.1,18.7,2.7,25.4,8.4c7.5,6.5,12.8,15.5,12.8,27.5c0,22.4-19.4,37.9-39.1,37.9
			c-15.8,0-30.1-8.7-38.8-20.9l-28.9,24.2c18.5,20.9,43.3,32.5,69.2,32.5c43.3,0,77.9-29.5,77.9-73.7
			C248,115.2,237.6,95.6,220.9,82.5z"/>
	</g>
</g>
</svg>
