<?xml version="1.0" encoding="UTF-8" standalone="no"?>
<!-- Created with Inkscape (http://www.inkscape.org/) -->
<svg xmlns:svg="http://www.w3.org/2000/svg" xmlns="http://www.w3.org/2000/svg" version="1.0" width="800" height="141.08701" viewBox="0 0 800 141.087" id="Layer_1" xml:space="preserve"><defs id="defs20"/>
<polyline fill="#EA232A" points="39.864,9.838 31.005,30.231 44.294,30.231 0,133.575 80.326,133.575 88.925,113.443   51.327,113.443 95.881,9.838 39.864,9.838 " id="polyline3" style="fill:#ea232a"/>
<path d="M 149.036,9.838 L 110.214,9.838 L 101.224,30.399 L 115.034,30.399 C 112.167,37.432 108.65,46.292 103.699,57.234 C 131.318,50.721 145.387,29.38 149.036,9.838" style="fill:#ea232a" id="path5"/>
<polyline fill="#EA232A" points="212.87,30.688 251.69,30.688 260.289,9.838 223.812,9.838 228.241,0 203.75,0 199.321,9.838   166.752,9.838 158.153,30.432 171.44,30.432 127.41,133.585 207.398,133.585 216.256,113.212 177.174,113.212 192.286,78.14   231.368,78.14 239.185,59.573 200.363,59.573 212.87,30.688 " id="polyline7" style="fill:#ea232a"/>
<path d="M 337.903,43.039 L 309.829,108.827 L 303.45,98.412 L 287.882,107.05 L 291.711,112.893 C 278.184,112.893 280.492,101.722 283.809,95.372 L 308.298,38.214 C 311.166,31.775 317.115,28.937 322.978,28.688 C 332.282,28.29 341.4,34.421 337.903,43.039 M 322.978,9.838 C 282.196,10.121 264.922,38.729 255.471,58.788 C 228.418,116.193 271.454,133.219 281.247,134.99 C 286.861,136.006 298.089,136.006 303.704,134.99 L 307.277,141.087 L 328.461,141.087 L 321.315,130.164 C 337.138,129.147 355.769,107.558 363.935,90.284 C 372.101,73.012 395.998,11.18 322.978,9.838 z " style="fill:#ea232a" id="path9"/>
<path d="M 484.101,9.838 L 443.977,103.179 C 436.942,116.981 405.677,115.703 414.533,98.067 L 452.314,9.838 L 398.38,9.838 L 389.522,30.212 L 403.33,30.212 L 377.796,90.399 C 367.374,113.147 382.484,134.08 416.096,134.362 C 450.746,134.653 462.475,113.147 466.123,104.202 L 506.247,9.838 L 484.101,9.838" style="fill:#ea232a" id="path11"/>
<polyline fill="#EA232A" points="520.316,9.838 511.72,30.382 523.441,30.382 479.411,133.838 519.795,133.838 573.208,9.838   520.316,9.838 " id="polyline13" style="fill:#ea232a"/>
<path d="M 647.726,54.223 C 645.902,57.83 640.691,69.938 632.875,69.938 L 616.2,69.938 L 633.395,30.256 L 645.38,30.256 C 655.544,30.256 649.55,50.615 647.726,54.223 M 687.068,55.51 C 693.582,38.762 689.152,9.838 663.098,9.838 L 588.06,9.838 L 579.071,30.255 L 593.271,30.255 L 549.5,133.575 L 589.883,133.575 L 608.122,90.549 L 648.247,90.549 C 667.267,90.549 680.73,71.81 687.068,55.51 z " style="fill:#ea232a" id="path15"/>
<polyline fill="#EA232A" points="790.88,31.196 800,10.758 704.377,10.758 695.389,31.327 709.98,31.327 666.076,133.974   746.849,133.974 754.924,115.598 713.759,115.598 729.131,79.632 770.296,79.632 778.375,60.731 737.207,60.731 749.974,31.196   790.88,31.196 " id="polyline17" style="fill:#ea232a"/>
</svg>