<?xml version="1.0" encoding="UTF-8" standalone="no"?>
<!-- Created with Inkscape (http://www.inkscape.org/) -->

<svg
   xmlns:dc="http://purl.org/dc/elements/1.1/"
   xmlns:cc="http://creativecommons.org/ns#"
   xmlns:rdf="http://www.w3.org/1999/02/22-rdf-syntax-ns#"
   xmlns:svg="http://www.w3.org/2000/svg"
   xmlns="http://www.w3.org/2000/svg"
   xmlns:sodipodi="http://sodipodi.sourceforge.net/DTD/sodipodi-0.dtd"
   xmlns:inkscape="http://www.inkscape.org/namespaces/inkscape"
   width="571.5"
   height="300"
   viewBox="0 0 571.50001 300"
   id="svg2"
   version="1.1"
   inkscape:version="0.91 r13725"
   sodipodi:docname="RMC Story logo 2018.svg">
  <defs
     id="defs4" />
  <sodipodi:namedview
     id="base"
     pagecolor="#ffffff"
     bordercolor="#666666"
     borderopacity="1.0"
     inkscape:pageopacity="0.0"
     inkscape:pageshadow="2"
     inkscape:zoom="0.7"
     inkscape:cx="318.17231"
     inkscape:cy="123.76366"
     inkscape:document-units="px"
     inkscape:current-layer="layer1"
     showgrid="false"
     inkscape:window-width="1280"
     inkscape:window-height="691"
     inkscape:window-x="0"
     inkscape:window-y="1"
     inkscape:window-maximized="1"
     units="px" />
  <metadata
     id="metadata7">
    <rdf:RDF>
      <cc:Work
         rdf:about="">
        <dc:format>image/svg+xml</dc:format>
        <dc:type
           rdf:resource="http://purl.org/dc/dcmitype/StillImage" />
        <dc:title></dc:title>
      </cc:Work>
    </rdf:RDF>
  </metadata>
  <g
     inkscape:label="Calque 1"
     inkscape:groupmode="layer"
     id="layer1"
     transform="translate(0,-752.36216)">
    <g
       id="g3966"
       transform="matrix(2.5591504,0,0,2.5591504,-860.14227,199.76641)"
       style="fill:#ef922a;fill-opacity:1">
      <g
         id="g3490"
         style="fill:#ef922a;fill-opacity:1">
        <path
           inkscape:connector-curvature="0"
           id="path3475"
           style="font-style:oblique;font-variant:normal;font-weight:500;font-stretch:normal;font-size:35px;line-height:0%;font-family:Avenir;-inkscape-font-specification:'Avenir Medium Oblique';text-align:end;letter-spacing:26px;word-spacing:0px;text-anchor:end;fill:#ef922a;fill-opacity:1;stroke:none;stroke-width:1px;stroke-linecap:butt;stroke-linejoin:miter;stroke-opacity:1"
           d="m 339.18462,327.80314 q 0.7,1.25754 2.03,1.87018 1.365,0.58041 2.87,0.58041 0.84,0 1.715,-0.22572 0.91,-0.25796 1.68,-0.74162 0.805,-0.48367 1.365,-1.19305 0.595,-0.70937 0.735,-1.64446 0.21,-1.32202 -0.595,-1.99915 -0.805,-0.70938 -2.1,-1.1608 -1.26,-0.48367 -2.8,-0.90285 -1.505,-0.45142 -2.765,-1.22528 -1.225,-0.77387 -1.925,-2.06365 -0.7,-1.32202 -0.35,-3.54688 0.14,-0.99958 0.77,-2.12814 0.665,-1.12855 1.82,-2.06363 1.19,-0.9351 2.87,-1.54774 1.68,-0.64489 3.92,-0.64489 1.015,0 1.96,0.12898 0.98,0.0967 1.82,0.38693 0.875,0.2902 1.61,0.80612 0.735,0.5159 1.33,1.28977 l -3.08,2.28936 q -0.49,-0.90285 -1.575,-1.451 -1.05,-0.54816 -2.52,-0.54816 -1.4,0 -2.38,0.35469 -0.98,0.32244 -1.61,0.8706 -0.63,0.51591 -0.98,1.12855 -0.315,0.61265 -0.385,1.12856 -0.21,1.45099 0.56,2.22486 0.805,0.77387 2.065,1.25754 1.295,0.48366 2.8,0.8706 1.54,0.38693 2.8,1.0963 1.26,0.67713 1.96,1.87018 0.735,1.1608 0.42,3.22444 -0.28,1.64447 -1.155,2.96649 -0.875,1.32202 -2.17,2.22487 -1.295,0.90284 -2.94,1.38651 -1.645,0.48366 -3.43,0.48366 -2.415,0 -4.41,-0.74162 -1.995,-0.77387 -3.01,-2.41833 l 3.08,-2.19263 z" />
        <path
           inkscape:connector-curvature="0"
           id="path3477"
           style="font-style:oblique;font-variant:normal;font-weight:500;font-stretch:normal;font-size:35px;line-height:0%;font-family:Avenir;-inkscape-font-specification:'Avenir Medium Oblique';text-align:end;letter-spacing:26px;word-spacing:0px;text-anchor:end;fill:#ef922a;fill-opacity:1;stroke:none;stroke-width:1px;stroke-linecap:butt;stroke-linejoin:miter;stroke-opacity:1"
           d="m 391.67458,312.21537 -7.98,0 0.455,-3.04957 8.015,0 3.36,0 7.945,0 -0.455,3.04957 -7.98,0 -3.01,20.94043 -3.36,0 3.01,-20.94043 z" />
        <path
           inkscape:connector-curvature="0"
           id="path3479"
           style="font-style:oblique;font-variant:normal;font-weight:500;font-stretch:normal;font-size:35px;line-height:0%;font-family:Avenir;-inkscape-font-specification:'Avenir Medium Oblique';text-align:end;letter-spacing:26px;word-spacing:0px;text-anchor:end;fill:#ef922a;fill-opacity:1;stroke:none;stroke-width:1px;stroke-linecap:butt;stroke-linejoin:miter;stroke-opacity:1"
           d="m 441.86239,333.15579 q -2.835,0 -5.075,-0.90285 -2.205,-0.93509 -3.675,-2.54732 -1.47,-1.61224 -2.1,-3.80487 -0.63,-2.19263 -0.245,-4.73996 0.385,-2.54732 1.68,-4.73996 1.295,-2.19263 3.255,-3.80486 1.96,-1.61224 4.48,-2.51509 2.52,-0.93509 5.355,-0.93509 2.835,0 5.04,0.93509 2.24,0.90285 3.71,2.51509 1.47,1.61223 2.065,3.80486 0.63,2.19264 0.245,4.73996 -0.385,2.54733 -1.68,4.73996 -1.26,2.19263 -3.22,3.80487 -1.96,1.61223 -4.48,2.54732 -2.52,0.90285 -5.355,0.90285 z m 0.455,-2.90201 q 2.135,0 3.955,-0.70939 1.82,-0.74162 3.22,-1.96692 1.435,-1.22528 2.345,-2.86977 0.91,-1.67673 1.19,-3.54691 0.28,-1.87018 -0.14,-3.51466 -0.385,-1.67673 -1.435,-2.90202 -1.015,-1.2253 -2.625,-1.93468 -1.61,-0.74163 -3.745,-0.74163 -2.135,0 -3.99,0.74163 -1.82,0.70938 -3.22,1.93468 -1.4,1.22529 -2.345,2.90202 -0.91,1.64448 -1.19,3.51466 -0.28,1.87018 0.105,3.54691 0.42,1.64448 1.47,2.86977 1.05,1.2253 2.66,1.96692 1.61,0.70939 3.745,0.70939 z" />
        <path
           inkscape:connector-curvature="0"
           id="path3481"
           style="font-style:oblique;font-variant:normal;font-weight:500;font-stretch:normal;font-size:35px;line-height:0%;font-family:Avenir;-inkscape-font-specification:'Avenir Medium Oblique';text-align:end;letter-spacing:26px;word-spacing:0px;text-anchor:end;fill:#ef922a;fill-opacity:1;stroke:none;stroke-width:1px;stroke-linecap:butt;stroke-linejoin:miter;stroke-opacity:1"
           d="m 487.15818,309.1658 3.22,0 5.495,0 q 2.38,0 3.815,0.6438 1.47,0.60992 2.205,1.59255 0.77,0.94876 0.945,2.16859 0.175,1.18595 0,2.30412 -0.175,1.15207 -0.735,2.23637 -0.56,1.0504 -1.505,1.93139 -0.91,0.8471 -2.135,1.45702 -1.19,0.57603 -2.625,0.71157 l 5.46,10.94459 -4.2,0 -4.795,-10.57186 -3.745,0 -1.505,10.57186 -3.36,0 3.465,-23.99 z m 1.82,10.57186 4.41,0 q 0.98,0 1.96,-0.13553 0.98,-0.16942 1.785,-0.57604 0.84,-0.4066 1.4,-1.15206 0.56,-0.77933 0.735,-1.99917 0.175,-1.21982 -0.175,-1.96528 -0.35,-0.77933 -1.05,-1.18595 -0.665,-0.4066 -1.61,-0.54214 -0.945,-0.16942 -1.925,-0.16942 l -4.41,0 -1.12,7.72559 z" />
        <path
           inkscape:connector-curvature="0"
           id="path3483"
           style="font-style:oblique;font-variant:normal;font-weight:500;font-stretch:normal;font-size:35px;line-height:0%;font-family:Avenir;-inkscape-font-specification:'Avenir Medium Oblique';text-align:end;letter-spacing:26px;word-spacing:0px;text-anchor:end;fill:#ef922a;fill-opacity:1;stroke:none;stroke-width:1px;stroke-linecap:butt;stroke-linejoin:miter;stroke-opacity:1"
           d="m 537.78943,322.92278 -7.385,-13.75698 4.305,0 5.215,10.53798 8.505,-10.53798 4.095,0 -11.375,13.75698 -1.47,10.23302 -3.36,0 1.47,-10.23302 z" />
      </g>
      <g
         style="fill:#ef922a;fill-opacity:1"
         transform="matrix(0.54841519,0,0,-0.54841519,271.76153,349.94355)"
         id="g5175">
        <path
           d="m 199.76356,191.50389 c -0.27479,-16.7911 -13.79734,-17.49977 -13.79734,-17.49977 l -12.19199,0 3.26855,37.32803 9.34286,0 c 4.20862,0 13.43577,-3.71689 13.37792,-19.82826 m 41.43542,9.47302 c 0,39.68544 -29.08434,39.68544 -32.45413,39.68544 -2.35741,0 -68.07557,0.14463 -68.07557,0.14463 l -16.57416,-142.45684 43.86513,0 2.57435,43.89406 c 0,0 0.65082,5.68381 5.06192,5.68381 3.45657,0 5.20654,-3.70243 5.20654,-3.70243 l 10.06599,-45.629576 41.55111,0 -15.475,55.276146 c 0,0 24.25382,8.53295 24.25382,47.10476"
           style="fill:#ef922a;fill-opacity:1;fill-rule:nonzero;stroke:none"
           id="path2388"
           inkscape:connector-curvature="0" />
        <path
           d="m 268.32941,239.65286 35.12971,0 20.82618,-68.48052 34.62352,68.20573 37.28464,0 -13.349,-140.779173 -37.93546,0 3.87598,53.511703 -24.81786,-53.511703 -12.79942,0 -16.25599,50.011753 -5.26439,-50.011753 -37.51605,0 16.19814,141.053963 z"
           style="fill:#ef922a;fill-opacity:1;fill-rule:nonzero;stroke:none"
           id="path2390"
           inkscape:connector-curvature="0" />
        <path
           d="m 500.00328,189.11901 6.75404,0 17.70225,27.68146 c 0,0 0.67975,4.1797 -3.5578,7.86767 -3.76029,4.57018 -14.27461,19.69809 -43.15647,19.69809 -28.59261,0 -60.62732,-24.13812 -66.67269,-66.54253 -6.59496,-36.98093 6.11769,-73.05071 39.54081,-81.901835 35.33219,-8.200307 60.22236,14.722955 62.81117,24.022415 1.95245,3.78921 1.95245,4.46895 0,5.53919 -1.21486,2.44418 -11.03498,22.67739 -11.03498,22.67739 l -7.14454,0 c 0,0 -1.44626,0 -3.48549,-2.27063 -1.6632,-1.6632 -8.28708,-8.66311 -12.10521,-9.60318 -4.93176,-4.32433 -31.29712,-3.76029 -29.66284,29.61945 2.95037,37.50158 29.27234,37.50158 29.27234,37.50158 0,0 8.77882,2.41526 20.73941,-14.28907"
           style="fill:#ef922a;fill-opacity:1;fill-rule:nonzero;stroke:none"
           id="path2392"
           inkscape:connector-curvature="0" />
      </g>
    </g>
  </g>
</svg>
