<svg xmlns="http://www.w3.org/2000/svg" viewBox="0 0 1714.2 825.2">
    <path fill="#1c1535" d="M771.3 503.1L670.2 0l-3.7 3.5 104.8 499.6"/>
    <path d="M1696.4 532.7c-9 30-20.6 58.9-35.2 86.7-23.7 45.2-54.5 84.7-93.5 117.8-38 32.3-80.9 55.2-128.6 69.5-26.2 7.9-53 13-80.2 15.9-32.7 3.4-65.5 3.3-98.2.6-33.3-2.8-66.3-8.2-98.4-18-38.6-11.8-74.8-28.3-107.7-52.2-44.2-32.2-77.1-73-98.2-123.5 0 0-2.8-6.6-3.7-9.1l-64 204.6H647.8l-90-489.2L467.6 825H220.4L0 .9h213.3l131.1 508.4L449.3 0h220.9l101.1 503.1L905.7 1.5c108.8 0 226.2-.3 335 .2 31.3.1 62.5 1.7 93.7 5.3 38 4.4 75.2 11.9 111.5 23.4 36.8 11.7 71.6 28.1 103.7 49.9 26.6 18.1 50.5 39.1 71.5 63.5 10 11.7 19.5 23.8 27.5 36.8 13.5 21.9 25.5 44.5 35 68.7 15.6 40.2 24.9 81.7 28.9 124.4 5 54-.6 107-16.1 159z" fill="#6414b4"/>
    <path d="M1632.8 362.5c-4-54.8-21.3-105.1-51.5-150.9-13.4-20.2-30-37.7-49-52.6-23.9-18.9-50.5-33.4-79.5-43.4-18.4-6.4-37.1-10.9-56-14-14.5-2.4-29.2-3.8-44.1-4.6-49.5-2.4-98.1 2.5-145.7 16.8-18.4 5.5-36.4 12.2-53.5 20.7-11.2 5.6-21.7 12.1-31.8 19.3-5.9 4.2-11.7 8.7-17.4 13.3-18.2 14.9-33.6 32.1-46.1 51.9-13.6 21.7-22.4 45.3-26.7 70.5-4 23-4.1 46-1.2 69.2 4 32.3 15.7 61.5 35.6 87.2 22.2 28.6 50.2 48.3 82.4 61.5 9.6 4 19.5 7.3 29.8 10.2 14.8 4.1 29.8 7.2 44.8 9.3 27.2 3.8 54.7 4.2 82.5 1.6 35.1-3.3 68.3-12.3 99.1-28.8 2.9-1.6 5.8-3.2 8.6-4.9l3-1.8c.7-.4 1.4-.8 2-1.3 3.8-2.4 7.5-4.9 11.8-7.6-.2 1.6-.2 2.6-.4 3.5-3.4 13.8-7.4 27.4-13 40.4-8.8 20.4-20.5 38.9-39 51.7-33.5 23-69.5 26.8-106.7 16.9-4.2-1.1-8.4-2.4-12.6-3.9-3.2-1.1-6.2-2.5-9.1-4.2-2.2-1.3-4.3-2.8-6.3-4.4-3-2.5-5.7-5.4-8.1-8.6-2.3-3.2-4.3-6.8-5.8-10.7-.9-2.3-2.2-5.4-2.2-5.4h-15.5c-19.6.1-39.2 0-58.8 0-37 0-74-.1-111-.1h-6s.4 2.5.8 4.5c8.3 40.3 26.2 75.2 56.7 103.4 7.5 6.9 15.4 13.2 23.5 18.8 6.7 4.6 13.5 8.8 20.6 12.6 2.5 1.3 4.9 2.6 7.4 3.9 16.1 8 33.2 14.2 51 18.8 71.7 18.5 143.7 19.1 215.7 1.5 30.2-7.4 58.5-19.4 84.7-36 25.3-16 47.4-35.7 66.2-59.1 13.2-16.5 24.4-34.2 33.8-53.1 18.1-36.4 28.7-75.1 34.1-115.3 4.2-32.2 5.3-64.4 2.9-96.8zm-212.3-29.2c-2.8 27.4-18.5 46-41.9 58.7-15.1 8.2-31.3 12.2-53.2 13.3-3.7.2-7.6.3-11.6.3-11.8-.3-24.7-2.8-37.2-8-13.6-5.7-26.8-14.7-38.1-28-15.8-18.7-20.4-40.5-13.4-64.2 6.9-23 22.9-38.7 43.8-49 3.6-1.8 7.2-3.4 10.8-4.8 20.3-8 40.8-10.6 61.5-7.4 10.6 1.7 21.3 4.9 31.9 9.8 32.4 14.8 50.9 45.8 47.4 79.3z" fill="#fff"/>
    <path fill="#a64cff" d="M213.3.9l47.5 29.6 101.1 393.7-17.5 85.1zM670.2 0l15.5 31L776 485.7l-4.7 17.4zM467.6 825l28.9-30.2 72.8-396.5-11.4-62.5zM1420.5 333.3c-2.8 27.4-18.5 46-41.9 58.7-17.6 9.6-36.8 13.4-64.9 13.7-2.1-.1-4.2-.2-6.3-.4 20.9-1.2 36.3-5 50.7-12.8 22.6-12.3 37.8-30.2 40.5-56.7 3.3-32.4-14.5-62.3-46-76.6-24.4-11.1-48.8-13.4-72.9-7.7 30.7-12.1 61.9-11.8 93.2 2.5 32.6 14.8 51.1 45.8 47.6 79.3zM1226.6 559.3h-15.5c-19.6.1-39.2 0-58.8 0-37 0-74-.1-111-.1h-6s.4 2.5.8 4.5c8.3 40.3 26.2 75.2 56.7 103.4 7.5 6.9 15.3 13.2 23.5 18.8-11.3-7-22.2-15.2-32.3-24.6-30.5-28.1-48.4-63.1-56.7-103.3-.4-2-.8-4.5-.8-4.5h5.9c37 0 74 0 111 .1 19.6 0 39.2.1 58.8 0h9.7l14.7 5.7zM1429.9 484.1c-.2 1.6-.2 2.6-.4 3.5-3.4 13.8-7.4 27.4-13 40.4-8.8 20.4-20.5 38.9-39 51.7-37.2 25.6-77.7 27.4-119.3 13-3.2-1.1-6.2-2.5-9.1-4.2 37.9 10.8 74.7 7.5 108.8-16 18.4-12.7 30-31.1 38.8-51.3 3-7 5.6-14.2 7.8-21.5 3.9-2.1 7.8-4.3 11.6-6.7 4.4-2.7 8.8-5.7 13.8-8.9zM1222.9 526.9c-18.3-1.9-36.4-5.4-54.5-10.4-10.1-2.8-19.8-6.1-29.2-10-31.5-12.9-59-32.2-80.8-60.3-19.6-25.2-31-53.9-34.9-85.6-2.8-22.7-2.7-45.3 1.2-67.9 4.3-24.7 12.9-47.9 26.2-69.2 12.2-19.5 27.4-36.3 45.2-50.9 8.2-6.7 16.8-13.1 25.6-18.9-5.9 4.2-11.7 8.7-17.4 13.3-18.2 14.9-33.6 32.1-46.1 51.9-13.6 21.7-22.4 45.3-26.7 70.5-4 23-4.1 46-1.2 69.2 4 32.3 15.7 61.5 35.6 87.2 22.2 28.6 50.2 48.3 82.4 61.5 9.6 4 19.5 7.3 29.8 10.2 14.8 4.2 29.7 7.3 44.8 9.4z"/>
    <path fill="#54388c" d="M771.3 503.1L907.7 5.8l-2-4.3z"/>
    <path fill="#5b3d8f" d="M771.3 503.1L670.2 0l-3.7 3.5 104.8 499.6"/>
</svg>
